<?xml version="1.0" encoding="utf-8"?>
<!-- Generator: Adobe Illustrator 26.0.0, SVG Export Plug-In . SVG Version: 6.00 Build 0)  -->
<svg version="1.1" id="Слой_1" xmlns="http://www.w3.org/2000/svg" xmlns:xlink="http://www.w3.org/1999/xlink" x="0px" y="0px"
	 viewBox="0 0 722 376" style="enable-background:new 0 0 722 376;" xml:space="preserve">
<style type="text/css">
	.st0{fill:#92E3BC;}
	.st1{opacity:0.7;fill:#FFFFFF;enable-background:new    ;}
	.st2{fill:none;stroke:#263238;stroke-linecap:round;stroke-linejoin:round;}
	.st3{fill:#263238;}
	.st4{opacity:0.2;}
	.st5{opacity:0.2;fill:none;stroke:#FFFFFF;stroke-linecap:round;stroke-linejoin:round;enable-background:new    ;}
	.st6{fill:#92E3BC;stroke:#263238;stroke-linecap:round;stroke-linejoin:round;}
	.st7{opacity:0.3;fill-opacity:0.7;enable-background:new    ;}
	.st8{opacity:0.4;}
	.st9{opacity:0.4;fill:none;stroke:#263238;stroke-linecap:round;stroke-linejoin:round;enable-background:new    ;}
	.st10{fill:#FFFFFF;}
	.st11{opacity:0.4;fill:#92E3BC;enable-background:new    ;}
	.st12{fill:#FFFFFF;stroke:#263238;stroke-linecap:round;stroke-linejoin:round;}
</style>
<path class="st0" d="M319.2,145.7c1.1-19.5,8.1-38.2,20.2-53.6c16.6-21.6,42.6-33.1,69-36.6c38.5-5.1,72.5,3.9,108.4-17.1
	c11.1-6.5,21.2-14.6,32.4-20.9c33.1-18.4,70.4-4.8,93.2,23.4c47.6,58.8,45.8,148.6,23.3,217c-10.1,30.7-32.9,55.6-62.2,69.5
	c-66,31.5-154.3-1.3-208.7-42.3C354.2,254.6,316,198.9,319.2,145.7z"/>
<path class="st1" d="M319.2,145.7c1.1-19.5,8.1-38.2,20.2-53.6c16.6-21.6,42.6-33.1,69-36.6c38.5-5.1,72.5,3.9,108.4-17.1
	c11.1-6.5,21.2-14.6,32.4-20.9c33.1-18.4,70.4-4.8,93.2,23.4c47.6,58.8,45.8,148.6,23.3,217c-10.1,30.7-32.9,55.6-62.2,69.5
	c-66,31.5-154.3-1.3-208.7-42.3C354.2,254.6,316,198.9,319.2,145.7z"/>
<path class="st2" d="M406.1,142.2c5.4-2.2,9.1,0.9,10.8,3c1.3-2.3,4.4-6,10.1-4.8c6.2,1.3,9,8.8,4.5,16.2
	c-3.2,5.4-8.8,9.3-11.6,11.1c-0.3,0.2-0.7,0.4-0.9,0.6c-0.3-0.1-0.6-0.2-1-0.4c-3.1-1.3-9.4-4.2-13.4-8.9
	C398.9,152.4,400.3,144.5,406.1,142.2z"/>
<path class="st2" d="M432,172.8c0.9-0.1,1.9,0,2.7,0.5c0.8,0.5,1.4,1.2,1.8,2.1c0.6-0.7,1.4-1.2,2.3-1.4c0.9-0.2,1.9-0.1,2.7,0.4
	c2.6,1.3,3,4.9,0.2,7.8c-1.9,1.7-4.1,2.9-6.4,3.7l-0.5,0.1l-0.4-0.3c-2-1.4-3.7-3.3-5-5.5C427.6,176.5,429.1,173.2,432,172.8z"/>
<path class="st2" d="M381,205.8c0,0,6.5-3.3,8.5-3.1c2,0.3-3.6,2.5,0,2.5s4.9-1.3,4.9-0.5c0,0.8,0.3,1.4,2,1
	c1.8-0.4,2.2,0.1,3.1,0.1c1.6,0,3.2-0.3,4.7-0.7c1.6-0.5,3.4-1.1,4.5-0.3c1.1,0.9,0.7,1.4,4.7,1c2.3-0.2,4.7-0.2,7,0.1"/>
<path class="st2" d="M380.9,220.8c3.2-0.6,10.2-4.1,8.2-3.7c-2,0.4-5.9,2.7-0.9,2.8c5,0.1,6.1-1.7,7.5-2.2c1.4-0.5,6.1,0,6.8,0
	c0.7,0-3.9,1,0,1.2c3.9,0.2,4.2-0.5,5.7,0c1.3,0.3,2.7,0.3,4,0c0,0,0.7,0.7,4.3,0.8c3.6,0.1,6.3,0,6.3,0"/>
<path class="st2" d="M378.4,212.9c0,0,9.5-0.4,11.3-0.9c1.8-0.5,0.9-1.8,3.4-1.3s4.1-0.5,6.2-0.1c2.1,0.4,7.7,0,5.3-0.9
	c-2.4-0.9-7,2.2-1.8,2.3c5.2,0.1,7.5-0.4,7.9-0.8c0.5-0.4,3.2,0.8,3.2,0.8s2.9-1,4.2-0.8c1.3,0.3,7,0.8,7,0.8"/>
<path class="st2" d="M577.7,92.4c0.6,3.5,2.1,6.8,4.3,9.5c1.1,1.3,2.3,2.5,3.7,3.6c3.8,2.8,8.5,4.2,13.3,4c4.8-0.3,9.3-2.2,12.8-5.4
	c3.5-3.2,5.8-7.6,6.5-12.3c0.7-4.7-0.4-9.5-2.9-13.6c-2.5-4.1-6.3-7.1-10.9-8.7c-4.5-1.5-9.4-1.5-13.9,0.2c-4.5,1.7-8.2,4.9-10.6,9
	C577.8,82.9,576.9,87.7,577.7,92.4L577.7,92.4z"/>
<path class="st2" d="M591.2,99.5c0,0,2.9-5.9,8.4-6.8c1.6-0.3,3.3-0.1,4.9,0.4c1.6,0.5,3,1.4,4.1,2.6"/>
<path class="st2" d="M601.4,79c1,0.9,2.1,1.6,3.4,1.9c1.3,0.4,2.6,0.4,3.9,0.1"/>
<path class="st2" d="M606.5,82.7c0.1,0.3,0,0.7-0.1,1c-0.1,0.3-0.4,0.6-0.7,0.8c-0.3,0.2-0.6,0.3-1,0.3c-0.4,0-0.7-0.1-1-0.3
	c-0.3-0.2-0.5-0.5-0.6-0.8c-0.1-0.3-0.1-0.7-0.1-1c0.1-0.3,0.3-0.7,0.5-0.9c0.3-0.2,0.6-0.4,0.9-0.5c0.5-0.1,0.9,0,1.3,0.3
	C606.1,81.8,606.4,82.2,606.5,82.7z"/>
<path class="st2" d="M606.6,83.4c0,0,1.8-0.1,1.6,2c-0.2,2.1,3.3,1.5,3.9,2c0.7,0.5-0.1,3.5,1.9,3.6c2,0.2,2.4,1.8,2.3,3.2
	c0.1,0.7,0.4,1.3,0.9,1.7"/>
<path class="st2" d="M605,84.7c0.6,1.7,0.3,3,3.3,3.8c3,0.8,1.2,3.5,2,4.3c0.8,0.8,3.4-0.6,2.7,3c-0.1,0.9,0,1.8,0.4,2.6
	c0.3,0.8,0.9,1.5,1.6,2.1"/>
<path class="st2" d="M591.5,80.7c-0.6,1.2-1.5,2.2-2.6,2.9c-1.1,0.8-2.3,1.2-3.7,1.4"/>
<path class="st2" d="M587.9,85.8c0.1,0.3,0.2,0.7,0.5,0.9c0.2,0.3,0.6,0.4,0.9,0.5c0.3,0.1,0.7,0.1,1-0.1c0.3-0.1,0.6-0.3,0.8-0.6
	c0.2-0.3,0.3-0.6,0.3-1c0-0.4-0.1-0.7-0.3-1c-0.2-0.3-0.5-0.5-0.8-0.7c-0.3-0.1-0.7-0.2-1-0.1c-0.2,0-0.5,0.1-0.7,0.2
	c-0.2,0.1-0.4,0.3-0.5,0.5c-0.1,0.2-0.2,0.4-0.3,0.6C587.9,85.4,587.9,85.6,587.9,85.8L587.9,85.8z"/>
<path class="st2" d="M582,101.9c0.3-0.6,0.4-1.2,0.3-1.9c-0.6-1.3-0.8-3,1.1-3.8c1.9-0.8,0.1-3.4,0.6-4.1c0.5-0.7,3.9-1.2,3.1-3.2
	c-0.9-2,0.9-2.4,0.9-2.4"/>
<path class="st2" d="M585.8,105.5c0.5-0.8,0.8-1.6,0.8-2.5c0.1-0.9-0.1-1.8-0.5-2.6c-1.8-3.1,1.1-2.6,1.6-3.7c0.5-1-2.1-3,0.4-4.7
	c2.5-1.7,1.9-2.9,1.9-4.7"/>
<path class="st2" d="M654.8,225.2c0.8,2.2,2.1,4.2,3.9,5.7c0.9,0.8,1.8,1.4,2.8,1.9c2.8,1.4,6.1,1.8,9.2,1.1c3.1-0.7,5.8-2.5,7.8-5
	c1.9-2.5,2.9-5.6,2.8-8.8c-0.1-3.2-1.3-6.2-3.4-8.6c-2.1-2.4-5-3.9-8.1-4.4c-3.1-0.5-6.3,0.1-9.1,1.8s-4.8,4.1-5.9,7.1
	C653.7,219,653.7,222.3,654.8,225.2L654.8,225.2z"/>
<path class="st2" d="M675.6,217.1c0,0-1.3,2.5-7.1,4.3c-3,0.9-6.1,1.4-9.2,1.3c0,0,2.4,9.6,11.6,7.2
	C680.1,227.4,675.6,217.1,675.6,217.1z"/>
<path class="st2" d="M668.8,213.8c0,0-0.1-4,3.5-0.6"/>
<path class="st2" d="M662.5,216c0,0-2.3-2.1-2.5,1.5"/>
<path class="st2" d="M670,226c0,0,2.2-2.5,3.7-2.2s1.2,3.3-3.2,4.8c-4.4,1.6-6.3-0.5-6.2-2.1S670,226,670,226z"/>
<path class="st2" d="M673.1,212.9c0,0,4.2-1.2,3.6,0.8C676,215.6,673.1,212.9,673.1,212.9z"/>
<path class="st2" d="M659.2,217.8c0,0-3.6,0.8-2.7,2.2C657.3,221.4,659.2,217.8,659.2,217.8z"/>
<path class="st2" d="M606.8,135.3c0,0,7-3.6,9.2-3.3c2.2,0.3-3.9,2.7,0,2.7c3.9,0,5.3-1.4,5.3-0.5c0,0.8,0.3,1.5,2.2,1.1
	c1.9-0.4,2.4,0.1,3.4,0.1c1.7,0,3.4-0.3,5-0.8c1.8-0.5,3.7-1.2,4.9-0.3c1.2,1,0.7,1.5,5.1,1.1c2.5-0.2,5-0.2,7.5,0.1"/>
<path class="st2" d="M607.8,170.5c0,0,7-3.6,9.2-3.3c2.2,0.3-3.9,2.7,0,2.7c3.9,0,5.3-1.4,5.3-0.5c0,0.8,0.3,1.5,2.2,1.1
	c1.9-0.4,2.4,0.1,3.4,0.1c1.7-0.1,3.4-0.4,5-0.8c1.8-0.6,3.7-1.2,4.9-0.3c1.2,1,0.7,1.5,5.1,1.1c2.5-0.2,5-0.2,7.5,0.1"/>
<path class="st2" d="M606.8,143.4c4-0.6,12.9-4.1,10.3-3.7c-2.6,0.4-7.4,2.7-1.1,2.8c6.3,0.1,7.7-1.7,9.4-2.2c1.7-0.5,7.7,0,8.6,0
	c0.9,0-4.9,1,0,1.2c4.9,0.2,5.3-0.5,7.2,0c1.7,0.3,3.4,0.3,5.1,0c0,0,0.9,0.7,5.4,0.8c4.6,0.1,8,0,8,0"/>
<path class="st2" d="M607.7,186.7c3.4-0.7,10.9-4.3,8.8-3.9c-2.2,0.4-6.3,2.9-1,3c5.3,0.1,6.6-1.8,8-2.3c1.5-0.5,6.6,0,7.3,0
	s-4.1,1,0,1.3c4.1,0.2,4.5-0.5,6.2,0c1.4,0.3,2.9,0.3,4.3,0c0,0,0.8,0.8,4.6,0.9c3.9,0.1,6.8,0,6.8,0"/>
<path class="st2" d="M606.8,164.5c3.4-0.7,10.9-4.3,8.7-3.9c-2.2,0.4-6.3,2.9-1,3c5.3,0.1,6.5-1.8,8-2.3c1.4-0.6,6.5,0,7.2,0
	c0.7,0-4.1,1,0,1.3c4.1,0.2,4.5-0.5,6.1,0c1.4,0.3,2.8,0.3,4.2,0c0,0,0.8,0.8,4.6,0.9c3.9,0.1,6.7,0,6.7,0"/>
<path class="st2" d="M605.6,150.6c3.3-0.9,4-3.4,6.2-2.6c2.2,0.8,4.9,0.3,5.6-0.2c1.2-0.7,2.5-1.1,3.8-1.3c0.8,0,0,1,0,2
	c0,1.1,2.9,0.4,3.6,0c0.7-0.4,1.8-0.9,2.5,0l0.8,0.9c0,0,1.6,0,2-0.9c0.3-0.7,0.9-1.4,1.6-1.7c0.7-0.4,1.6-0.5,2.4-0.3
	c2.2,0.5-0.7,1.1,0.9,2c1.5,0.9,2-2,3.6-0.7c1.6,1.3,0,2,1.3,2c1.3,0,8.3-1.1,11.6-0.3"/>
<path class="st2" d="M606.8,157.5c0,0,10.1-0.5,12.1-1c1.9-0.5,1-1.9,3.6-1.4c2.7,0.6,4.4-0.5,6.6-0.1c2.3,0.4,8.3,0,5.7-1
	c-2.6-1-7.5,2.3-1.9,2.5c5.5,0.1,8-0.4,8.4-0.8c0.5-0.5,3.4,0.8,3.4,0.8s3.1-1.1,4.6-0.8c1.5,0.2,7.5,1,7.5,1"/>
<path class="st2" d="M605,178.1c0,0,10.2-0.5,12.2-1c2-0.5,1-1.9,3.6-1.4c2.7,0.6,4.4-0.5,6.7-0.1c2.3,0.4,8.3,0,5.7-1
	c-2.6-1-7.5,2.3-1.9,2.5c5.6,0.1,8-0.4,8.5-0.8c0.5-0.4,3.4,0.8,3.4,0.8s3.1-1.1,4.6-0.8c1.5,0.2,7.5,1,7.5,1"/>
<path class="st2" d="M528.1,57.2c1.2-4.3,1.2-8.9,0-13.2c-1.2-4.3-3.4-8.3-6.6-11.5s-7.1-5.5-11.5-6.6c-4.3-1.2-8.9-1.1-13.2,0
	c-4.3,1.2-8.3,3.5-11.4,6.7s-5.4,7.2-6.6,11.5c-1.1,4.3-1.1,8.9,0.1,13.2c1.2,4.3,3.5,8.3,6.7,11.4l-0.1,3.4l22.4,6.1l1.7-2.9
	c4.4-1.1,8.4-3.4,11.6-6.5C524.6,65.5,526.9,61.6,528.1,57.2z"/>
<path class="st2" d="M498.1,97.3l-13.7-3.7c-0.9-0.2-1.6-0.8-2.1-1.6s-0.7-1.7-0.5-2.6l3-17.7l24,6.5l-6.4,16.8
	c-0.3,0.8-0.9,1.5-1.7,1.9C499.9,97.5,499,97.6,498.1,97.3z"/>
<path class="st2" d="M498.3,97.7c-0.6,2.4-4.4,3.5-8.3,2.4c-3.9-1.1-6.6-3.9-6-6.3"/>
<path class="st2" d="M489.9,53.2l5.7,1.5l5.6-6.5l0.2,15.5l7.8-11.6l0.6,6.2l4.1,1.1"/>
<path class="st2" d="M514.8,16.3L522.6,1"/>
<path class="st2" d="M537.3,32.3l12.5-4.3"/>
<path class="st2" d="M536.9,61.4l11.6,1.8"/>
<path class="st2" d="M485.9,21l-6.3-18.3"/>
<path class="st3" d="M519.7,128.7c0,0,3.5-27.6,22.7-21.5c19.3,6.2,24.1,27.9,21.1,47.6c-3,19.6,0.4,23.3,0.4,23.3
	s-5.5-6.4-3.6-20.4c0,0-3,15.7-0.3,22c0,0-1.4,3.2-5.6,2.2c0,0-7-16.6-7-32C547.7,134.5,519.7,128.7,519.7,128.7z"/>
<g class="st4">
	<path class="st5" d="M527.8,121.5c0,0,2.8-12.9,14.3-12.1"/>
	<path class="st5" d="M536.1,126.2c0,0,3.5-8.6,10.1-8.1c6.6,0.5,13.4,12.9,12.9,23.2c-0.6,10.3-5.5,25.3-1,36.7"/>
	<path class="st5" d="M541,131.4c0,0,8.1-2.3,10.2,5.2c2.1,7.5,0,24.5,0,24.5"/>
</g>
<path class="st6" d="M517.9,126.5c0,0,0.7-3.7,6.6-2.5c5.9,1.1,17.3,6.7,11.7,11.6S517.9,126.5,517.9,126.5z"/>
<path class="st0" d="M440.9,275.7c13.7,7.3,28.1-0.2,28.1-0.2c11.3,7.6,17.1,6.2,17.1,6.2l28.4,47l124.2-2.4c0,0,1.3-32.8,0-43.6
	c-6.8-56.1-34.6-67.5-63.7-74.7c-29.2-7.2-59.3-6-83.2,0.3c-32.6,8.7-50.8,26.2-50.8,26.2s-16.9,3.4-20.7,13.2
	C420.2,247.6,433.2,271.5,440.9,275.7z"/>
<path class="st7" d="M616.7,302.1l-126-12.7l-4.7-7.7c0,0-5.8,1.4-17.1-6.2c0,0-9.7,5.1-20.7,2.9c16.4-17.4,3.1-34,3.1-34
	c1.8,0.6,3.4,1.5,4.7,2.8c1.3,1.3,2.4,2.9,3,4.6c0,0-0.1-8.7,2.3-7.4c2.4,1.2,9.8,15,9.8,15c-3.7-32.9,9.2-36.7,9.2-36.7
	c-8,23.6,11.3,57,40.9,64.3c29.6,7.3,67.6,3.6,67.6,3.6c-3.4-4.2-2.4-12.4-2.4-12.4c2.9,3.4,13.9,8.7,13.9,8.7
	c-4.4-10.9,4.4-19.3,4.4-19.3L616.7,302.1z"/>
<path class="st7" d="M577.9,234.4c-20.6,22.9-49.7,7.6-49.7,7.6c-20.9,7.4-28.5-13.6-28.7-15.5c-1-9.9,3.6-17,10.7-22
	c21.6-2.9,43.5-1.8,64.6,3.4c2.1,0.5,4.2,1,6.2,1.6C585.3,216.5,586.2,225.2,577.9,234.4z"/>
<path class="st2" d="M440.9,275.7c13.7,7.3,28.1-0.2,28.1-0.2c11.3,7.6,17.1,6.2,17.1,6.2l28.4,47l124.2-2.4c0,0,1.3-32.8,0-43.6
	c-6.8-56.1-34.6-67.5-63.7-74.7c-29.2-7.2-59.3-6-83.2,0.3c-32.6,8.7-50.8,26.2-50.8,26.2s-16.9,3.4-20.7,13.2
	C420.2,247.6,433.2,271.5,440.9,275.7z"/>
<path class="st0" d="M519,244.7c0,0-11.5-3.2-5.2-21.8s12.5-31.2,31-30.9c18.5,0.3,31.8,16.1,33,22.3s-7.1,27.7-24.2,34.4"/>
<path class="st2" d="M519,244.7c0,0-11.5-3.2-5.2-21.8s12.5-31.2,31-30.9c18.5,0.3,31.8,16.1,33,22.3s-7.1,27.7-24.2,34.4"/>
<path class="st2" d="M480.3,265.2c0,0-6.7-22-1.6-33.2"/>
<g class="st8">
	<path class="st9" d="M529,266.7c0.1,6.4,1,12.8,2.7,19.1"/>
	<path class="st9" d="M529.8,257.8c-0.3,1.5-0.6,3.1-0.7,4.6"/>
	<path class="st9" d="M546.7,286.1c0.3,0.9,0.6,1.9,1,2.8"/>
	<path class="st9" d="M541,259.4c2.2,7.9,2.2,16.4,4.8,23.7"/>
	<path class="st9" d="M554.6,257.8c0,0,10.5,22.7,12.3,33.2"/>
	<path class="st9" d="M572,260.4c4.7,10.3,9,21,11.4,32.1"/>
	<path class="st9" d="M568.1,252.2c0.9,1.7,1.7,3.4,2.5,5.1"/>
	<path class="st9" d="M519.7,254c-3,10.1-4.5,20.7-4.2,31.3"/>
	<path class="st9" d="M503.5,256.4c-2.7,8.1-3.8,16.7-3.3,25.3"/>
	<path class="st9" d="M508.9,245.7c-1.6,2.1-2.9,4.5-4,6.9"/>
	<path class="st9" d="M497.5,234.5c0,0-11.4,13-12.7,28.2"/>
	<path class="st9" d="M589.3,258.1c0.8,1.5,1.5,3,2.1,4.6"/>
	<path class="st9" d="M572.4,237.8c6,4.9,11.1,10.7,15.1,17.2"/>
	<path class="st9" d="M580.2,226.1c0,0,12.7,2.1,18.4,9.5"/>
	<path class="st9" d="M580.2,214.2c0,0,9.3-1.1,16.9,2.6"/>
	<path class="st9" d="M490.7,223.6c1.5-0.4,3-0.7,4.6-0.7"/>
	<path class="st9" d="M482.3,227.5c1.6-1.1,3.3-2,5-2.7"/>
	<path class="st9" d="M479.2,222.7c-5.4-0.5-24.5,13.7-24.5,13.7c-1.7-0.2-3.4,0-5,0.6c-1.6,0.6-3,1.6-4.2,2.8"/>
	<path class="st9" d="M473.9,247.2l-6.3,3.6c0,0-3.4,5.7-8.6,5.5"/>
	<path class="st9" d="M476.8,267.7c0,0-2.9,1.8-5.1,1.3c0,0-9.8,6.9-15.3,4.5"/>
</g>
<g class="st8">
	<path class="st9" d="M529.8,241.4c0,0-2.5,3.1,1.9,7.2"/>
	<path class="st9" d="M544.5,245.8c0.3,0.9,0.4,1.8,0.3,2.8"/>
	<path class="st9" d="M540.9,239.8c0.9,1,1.7,2,2.3,3.1"/>
	<path class="st9" d="M551.2,233.1c0,0,5,1.1,6.9,8.3"/>
	<path class="st9" d="M567.8,227.7c0.7,1.3,1.2,2.8,1.5,4.2"/>
	<path class="st9" d="M559.1,221.4c2.4,0.4,4.6,1.5,6.3,3.2"/>
	<path class="st9" d="M560.8,207.8c0,0,7.5-4.3,13.6,5.1"/>
	<path class="st9" d="M554.7,198.8c1.1-1.4,3.1-1.9,4.8-2"/>
	<path class="st9" d="M519.7,241.4c0,0-1.2-3.7,1.7-5.8"/>
</g>
<path class="st10" d="M721.6,314.2V376H266.5V259l122.4,14.7l95.3,11.6L631,303.2l75.4,9.2L721.6,314.2z"/>
<path class="st11" d="M700.8,326.9c-11.2,14-121.1,9.6-126.6,5.9c-3.9-2.4-8.2-4.2-12.7-5.2c0,0-26.1,3.3-31,0.5
	c-4.9-2.8-15.2-1.8-15.2-1.8l-24.5,10l-131.6-17.5l31.4-10.9c0,0-19.4-2-23.2-8.7c-3.8-6.7,21.4-25.5,21.4-25.5l95.3,11.6l-34.4,3
	l-18.2,8.3l47.8,9.1l53.5-2.1l98.2-0.4l75.4,9.2C706.6,316.3,705.3,321.3,700.8,326.9z"/>
<path class="st2" d="M721.6,314.2l-502.1-60.7L0,333.6"/>
<path class="st6" d="M499.1,332.6l-125-16.3l45-19.7l125,16.3L499.1,332.6z"/>
<path class="st10" d="M475.9,304l-35,18l-59.7-7.5l-2.6-2.7l2.5-1.2l35.1-16.3c9.9-3.2,20.5-3.7,30.7-1.5c8.7,2,17.2,5,25.2,9
	C474.6,303.2,475.9,304,475.9,304z"/>
<path class="st7" d="M475.9,304l-35,18l-59.7-7.5l-2.6-2.7l2.5-1.2c6.8-1.3,13.8-1.5,20.7-0.7c14.1,1.8,30.3,7.2,30.3,7.2
	s4.2,3,6.2-0.6c2-3.7,11.5-3.7,16.3-5.2c4.6-1.5,11.9-8.4,17.5-9.5C474.6,303.2,475.9,304,475.9,304z"/>
<path class="st2" d="M475.9,304l-35,18l-59.7-7.5l-2.6-2.7l2.5-1.2l35.1-16.3c9.9-3.2,20.5-3.7,30.7-1.5c8.7,2,17.2,5,25.2,9
	C474.6,303.2,475.9,304,475.9,304z"/>
<path class="st10" d="M540.9,308.7l-2.5,3.5l-38.5,17.6l-59-7.6l3.6-1.9l31.4-16.2c8.1-2.6,16.5-3.8,25-3.7
	c12.9,0.1,36.9,7.4,39.7,8.3L540.9,308.7z"/>
<path class="st7" d="M540.9,308.7l-2.5,3.5l-38.5,17.6l-59-7.6l3.6-1.9c7.6-1.8,18.2-3.5,26.7-2c9.5,1.7,18.8,4,28,7
	c0,0,31.4-13.4,41.5-16.6L540.9,308.7z"/>
<path class="st2" d="M540.9,308.7l-2.5,3.5l-38.5,17.6l-59-7.6l3.6-1.9l31.4-16.2c8.1-2.6,16.5-3.8,25-3.7
	c12.9,0.1,36.9,7.4,39.7,8.3L540.9,308.7z"/>
<path class="st2" d="M440.9,322.1c0,0,8.9-3.6,25.1-4c16.2-0.4,33.1,7.1,33.1,7.1l38.9-15.8"/>
<path class="st2" d="M451.3,320.9c16.2,0.2,32.3,2.4,47.9,6.8l16.3-6.9"/>
<path class="st2" d="M378.6,311.9c0,0,9.3-4,31.6-1c22.3,3,29.6,9.9,29.6,9.9"/>
<path class="st2" d="M380.3,313.6c0,0,9.8-2.5,28,0c18.2,2.5,29.4,7.2,29.4,7.2"/>
<g class="st8">
	<path class="st9" d="M445.2,315.6c0,0-3.7-0.1-3.3-1.4c0.5-1.4-3.7-1.2-5-2.4c-1.3-1.2-3.1-1.4-4.1-2c-1-0.7,1.5-0.8-2-1.9
		c-3.5-1.1-4.4,0.7-8-0.5c-3.5-1.3,1.9-1.3-3.1-1.7s-2.5,0.3-7.2,0s-4.4,1.1-5.7,0s-13.4,1.2-13.4,1.2"/>
	<path class="st9" d="M452.2,312.2l-2.8-1.3c-0.4-0.2-0.8-0.4-0.9-0.8c0-0.2,0.1-0.5-0.1-0.7c-0.1-0.2-0.4-0.3-0.7-0.3l-2.6-0.1
		c-0.2-0.4-0.6-0.8-1-1.1c-0.4-0.3-0.9-0.5-1.4-0.5c-1-0.1-1.9-0.3-2.9-0.6c-0.6-0.2-1.2-0.6-1.8-0.9c-4.2-2.3-9-3.5-13.8-3.6
		l1.2-0.8c-3.3-0.4-6.6,0-9.7,1.1c0.2-0.1,0.3-0.3,0.4-0.5c0.1-0.2,0.1-0.4,0.1-0.6l-10.9,1"/>
	<path class="st9" d="M459.4,309.3c-0.2,0-0.5,0-0.7-0.1c-0.2-0.1-0.4-0.2-0.6-0.4c-0.2-0.2-0.3-0.4-0.4-0.6
		c-0.1-0.2-0.1-0.4-0.1-0.7c0.1-0.2,0.1-0.4,0-0.6c-0.2-0.3-0.6-0.2-0.9-0.3c-0.9-0.2-0.9-1.5-1.6-2.1c-0.4-0.3-0.9-0.5-1.4-0.5
		l-6.9-1.2c-0.5,0-0.9-0.2-1.3-0.5c-0.3-0.3-0.4-0.7-0.7-0.9c-0.5-0.4-1.2-0.6-1.8-0.5l-6.6-0.2c-0.5,0-1-0.1-1.4-0.3
		c-0.2-0.1-0.4-0.3-0.5-0.5c-0.1-0.2-0.1-0.5,0-0.7c-2.6-1.1-5.6-1.2-8.4-1.3c-3.5-0.1-7.1-0.1-10.6,0"/>
	<path class="st9" d="M459,315c2.7-1,5.4-1.5,8.3-1.7c0.3,0,0.6,0,0.9,0.1c0.2,0.2,0.5,0.3,0.7,0.5c0.4,0.2,0.8,0.3,1.3,0.3l7.3,0.1
		c0.1,0.2,0.1,0.4,0.1,0.7h7.8l0.2,0.7l6.8-0.1c0.2,0,0.4,0,0.5,0.1c0.2,0.1,0.2,0.4,0.3,0.6c0.4,0.7,1.4,0.8,2.2,0.9
		c2.2,0.2,4.2,0.9,6.1,2.1"/>
	<path class="st9" d="M469.1,310.1l4.4-1.1c0.2-0.1,0.4-0.1,0.5,0c0.2,0.1,0.3,0.4,0.5,0.5c0.1,0.1,0.3,0.2,0.5,0.2
		c0.2,0,0.3,0.1,0.5,0c1.3,0,2.6-0.3,3.7-0.8c0.5-0.2,1-0.4,1.6-0.6c1-0.1,2,0,2.9,0.4c1.8,0.5,3.6,0.7,5.5,0.8c1.2,0,2.4,0,3.6,0.1
		c1.3,0.2,2.6,0.4,3.8,0.8l5,1.3c3.1,0.8,6.3,1.7,8.9,3.5"/>
	<path class="st9" d="M475.5,306.3l4.2-0.2c1.4-0.9,3.1-1.5,4.8-1.6c1.1,0,2.2,0,3.2,0.1l4.1,0.4c2.2,0.3,4.4,0.4,6.6,0.2
		c0,0.6,0.8,0.7,1.3,0.7l3.5-0.1c0,0.2,0,0.5,0.1,0.7c0.1,0.2,0.3,0.4,0.5,0.6c0.3,0.2,0.6,0.3,1,0.4c2.6,0.8,5.3,1.1,8.1,0.8
		c0.4-0.1,0.7,0,1.1,0.1c0.2,0.2,0.4,0.3,0.6,0.5c0.5,0.3,1,0.5,1.5,0.5c1.8,0.4,3.4,1.2,4.8,2.3l-0.2-1.1"/>
	<path class="st9" d="M528.8,308.5c-1.3,0.8-2.7-0.7-4-1.4c-1.3-0.7-2.8-0.6-4.2-0.7c-3.3-0.3-6.5-1.6-9.7-2.4
		c-2.5-0.5-5.1-0.8-7.6-0.9l-8.1-0.6"/>
</g>
<path class="st0" d="M456.4,266.6c-4.3,15-24.4,22-24.4,22s-27.1,10.3-28.9-15.1c0,0,1.4-12.4,9.5-17c0,0,5.9-11.7,14.8-16.7"/>
<path class="st7" d="M450.8,276.2c-7.5,8.4-18.9,12.3-18.9,12.3s-26.7,10.2-28.9-14.5l2.7-5.1c0,0,1.6-10.5,10.2-10.9
	c8.6-0.3,15.8,2.5,17.4,13.1c1.3,8.6-1.3,11.5-2.3,12.3c1.7-1.2,8.4-6.9,3.9-20.6c1.1-0.4,2.3-0.4,3.4,0.1c1.1,0.4,2,1.2,2.5,2.3
	c2.1,3.7-0.9,17-1,17.5C443.6,280.8,447.3,278.6,450.8,276.2z"/>
<path class="st2" d="M456.4,266.6c-4.3,15-24.4,22-24.4,22s-27.1,10.3-28.9-15.1c0,0,1.4-12.4,9.5-17c0,0,5.9-11.7,14.8-16.7"/>
<path class="st2" d="M442.8,244.3c0,0,15.5,5.3,11,23.1"/>
<path class="st12" d="M431.9,274.9c-0.1,2.1-0.8,4.1-2.1,5.8c-1.3,1.7-3,3-5,3.6l-3.9,2.7l-9.8,5.4l1.4,3.3c7.4,0,8.1,2.2,7.4,4.4
	c-0.8,2.3-10.9,3.4-12.7,3.8c-1.8,0.4-10.1-2.4-12.4-3.3c-2.3-0.9-3-5.4-3-5.4l-1.6-18.6c0.7-2.5,2.3-4.6,4.5-6c0,0,2-3.9,4.1-4.7
	c2.2-0.9,8.7,0.7,8.7,0.7s5.6-8.6,14.1-7C429.8,261.2,432.3,270.3,431.9,274.9z"/>
<path class="st2" d="M407.5,266.6c2.2,0.5,4.4,1.1,6.5,1.9"/>
<path class="st6" d="M417.2,298.8l4.6,4.8l-1.6-6.4L387,237.8l-3,1.7L417.2,298.8z"/>
<path class="st6" d="M386.1,244.5l-4.3-7.7c0,0,0.2-0.8,1.7-1.7c0.7-0.5,1.5-0.7,2.4-0.6l8.3,14.9c-0.8,0-1.7,0.2-2.4,0.6
	c-0.7,0.3-1.2,0.9-1.5,1.6l6.4,11.4l-1.1-0.1l-9.6-17.3L386.1,244.5z"/>
<path class="st10" d="M398.4,276c0,0,5.8,3.4,7.7,6.1c0,0,8.6,4.9,8.6,8.6c0,3.2-2.2,3.4-2.2,3.4s2.9,1.8,3.4,4
	c0.5,2.3-1.3,4.2-1.8,4c-0.5-0.2-17.6-4.6-21.7-6.5c-4.1-1.9-6.9-4.3-3.2-15.4c0.1-1.2,0.4-2.4,0.9-3.6c0.6-1.4,3.9-4.7,3.9-4.7"/>
<path class="st2" d="M398.4,276c0,0,5.8,3.4,7.7,6.1c0,0,8.6,4.9,8.6,8.6c0,3.2-2.2,3.4-2.2,3.4s2.9,1.8,3.4,4
	c0.5,2.3-1.3,4.2-1.8,4c-0.5-0.2-17.6-4.6-21.7-6.5c-4.1-1.9-6.9-4.3-3.2-15.4c0.1-1.2,0.4-2.4,0.9-3.6c0.6-1.4,3.9-4.7,3.9-4.7"/>
<path class="st2" d="M391.1,283c0.6,2,8,3.8,10.7,5.8c2.7,2,10.7,5.3,10.7,5.3"/>
<path class="st10" d="M422.4,271.9c0,0,3.6,1.4,4.9,4.1c1.4,2.7,1.5,7.6,0,9c-1.5,1.3-8.5,7.8-9.5,9c-1,1.2-6.6-2.7,0-11
	c0,0-0.2-4.6,1-6.1"/>
<path class="st2" d="M422.4,271.9c0,0,3.6,1.4,4.9,4.1c1.4,2.7,1.5,7.6,0,9c-1.5,1.3-8.5,7.8-9.5,9c-1,1.2-6.6-2.7,0-11
	c0,0-0.2-4.6,1-6.1"/>
<path class="st2" d="M428.4,257.3c0,0,7.2,1.7,8.3,11.7c1.1,10-2,16.2-9.5,19.5"/>
<g class="st8">
	<path class="st9" d="M430.5,247.6c1.8-2.1,4.2-4.4,7.2-4.7"/>
	<path class="st9" d="M425.6,255c0.8-1.5,1.6-2.9,2.6-4.2"/>
	<path class="st9" d="M437.7,263.9c0,0,10.9-1.5,15-6.1"/>
	<path class="st9" d="M446.6,276.9c2-0.9,3.8-2.3,5.2-4"/>
	<path class="st9" d="M437.7,279.5c1.8-0.2,3.6-0.7,5.3-1.2"/>
</g>
<path class="st0" d="M602.5,220.3c17.8,1,53.7,37.3,61.7,46.3c8.1,9,21.2,22.4,25.5,33c6.5,16.2-9.8,31.1-25.9,30.2
	c-16.1-0.9-49.8-35.6-49.8-35.6s-25.6-23.9-18.6-45.5"/>
<path class="st7" d="M649,280.2c0,0-26.7,9.2-38.7,10c-1.3-1.4-2.8-3.2-4.4-5.3c-2-4.9-5.6-15-0.8-15.9c6.3-1.1,5,9.8,8.5,15
	c0,0,6.1-14.4,14.1-14.4c8.1,0.1,4.7,9.9,4.7,9.9S646.3,275.3,649,280.2z"/>
<path class="st7" d="M663.8,329.7c-2.8-0.1-6.1-1.3-9.7-3.2c13.1-1.8,25.7-4.8,29.4-11.3c3.7-6.5,1.7-19.5-1.9-28.9
	c3.5,4.5,6.5,9,8.1,13.1C696.3,315.7,680,330.6,663.8,329.7z"/>
<path class="st2" d="M602.5,220.3c17.8,1,53.7,37.3,61.7,46.3c8.1,9,21.2,22.4,25.5,33c6.5,16.2-9.8,31.1-25.9,30.2
	c-16.1-0.9-49.8-35.6-49.8-35.6s-25.6-23.9-18.6-45.5"/>
<path class="st2" d="M583.5,274.9c0,0,8.3,12.4,27.2,15.7"/>
<path class="st10" d="M585.5,298.8l-14.7,0.2c0,0-20-6.4-22.6-8.1c-2.6-1.7-19.5,6.8-21.6,7.6c-1.4,0.6-2.6,1.4-3.8,2.4
	c-1,0.9-2.1,1.7-3.3,2.3c-1.5,0.7-4,4.6-4,4.6s-6.5,1.5-4.1,3.4c2.4,1.9,10.3,0.8,13.3-0.2c3-1,8.7-0.1,8.7-0.1s8.4,12.4,30.4,7.8
	l21.9,2"/>
<path class="st2" d="M585.5,298.8l-14.7,0.2c0,0-20-6.4-22.6-8.1c-2.6-1.7-19.5,6.8-21.6,7.6c-1.4,0.6-2.6,1.4-3.8,2.4
	c-1,0.9-2.1,1.7-3.3,2.3c-1.5,0.7-4,4.6-4,4.6s-6.5,1.5-4.1,3.4c2.4,1.9,10.3,0.8,13.3-0.2c3-1,8.7-0.1,8.7-0.1s8.4,12.4,30.4,7.8
	l21.9,2"/>
<path class="st2" d="M515.5,307.9c0,0,5.6-2.1,8.3-3.3c2.7-1.2,10.3-2,10.3-2s-0.9-3.7,2.7-5.1s4.1-4,4.1-4"/>
<path class="st2" d="M522.7,300.9c0,0,7.2-2.5,8.9-2.5"/>
<path class="st7" d="M605.7,289.9c0.6,0,1.1,0.1,1.7,0.3c0.1,0,0.2,0.1,0.4,0.1C607.1,290.3,606.4,290.1,605.7,289.9z"/>
<path class="st7" d="M649,280.2c0,0-19,6.5-32.1,9.1C625.5,287.1,637.7,282.4,649,280.2L649,280.2z"/>
<path class="st0" d="M653.2,279.5c-17.7,2.4-39.2,12.8-45.7,10.7c-6.5-2.2-22,7.4-22,7.4l-9.1,0.1c0,0-6.7,14.9-2.7,25.7l9.4,0.9
	c0,0-0.7,5.9,24,7.6c24.7,1.6,70.5,3.5,79.4-12.6"/>
<path class="st7" d="M686.5,319.2c-8.9,16.1-54.7,14.2-79.4,12.6c-24.7-1.6-24-7.6-24-7.6l-7-0.7c-0.2-5.6,0.4-16.1,7.4-19.6
	c0,0-1.2,15.7,0,17.9c1.2,2.2,33.5,8.5,50.9,6.8c17.3-1.7,43.1-3.6,49-13.2L686.5,319.2z"/>
<path class="st2" d="M653.2,279.5c-17.7,2.4-39.2,12.8-45.7,10.7c-6.5-2.2-22,7.4-22,7.4l-9.1,0.1c0,0-6.7,14.9-2.7,25.7l9.4,0.9
	c0,0-0.7,5.9,24,7.6c24.7,1.6,70.5,3.5,79.4-12.6"/>
<path class="st2" d="M618.7,288.9c0.5-0.3,5-11.4,9.7-12.4"/>
<path class="st2" d="M583.1,324.3c0-1.1-3.1-15.5,0.4-20.3"/>
<path class="st2" d="M601,242.9c0,0,4.3-11.9,15.8-13.1"/>
<g class="st8">
	<path class="st9" d="M621.8,259.9c0.4,1.4-0.5,3.1,2.1,4c6,0.9,8.5,5.1,11.9,9.3c1.8,0.7,3.4,1.8,4.7,3.2"/>
	<path class="st9" d="M607.8,241.4c4.8,4.4,8.9,9.6,12.2,15.2"/>
	<path class="st9" d="M597.3,301.9c-2,0.6-3.9,1.3-5.9,2.1"/>
	<path class="st9" d="M661.4,287.1c-17.9,9-37.5,8.2-57,12.4c-0.9,0-2.5,0.9-3.7,1.3"/>
	<path class="st9" d="M618.7,233.1c7.8,3.6,13.7,10.4,19.7,16.3c6,7.6,11,16.1,20.4,20.4c2.5,1.7,5.1,4.2,5.1,8.5
		c0.9,1.7,4.2,3.4,1,6.8"/>
	<path class="st9" d="M641.6,309.7c-16.9,2.6-33.9,7.7-51.3,5.3"/>
	<path class="st9" d="M680.2,289.3c2.7,12.8-14.1,15.3-23,17.3c-4.1,0.9-8.3,1.8-12.5,2.5"/>
	<path class="st9" d="M598.8,326.9c-3.3-0.5-6.5-1.3-9.5-2.6"/>
	<path class="st9" d="M688.7,306.9c-0.2,8-7.9,12.2-13.8,13.9c-23.8,8.5-48.4,7.6-72.9,6.5"/>
	<path class="st9" d="M606,266.5c3.1,3.2,7.1,4.8,8.5,9.3c0.9,2.7,1.8,6.1,5,6.9"/>
	<path class="st9" d="M598.6,254c1.3,3.5,3,6.9,5.3,9.9"/>
</g>
<path class="st12" d="M529.8,237.8c-0.1-0.1-0.2-0.3-0.3-0.4c-3.6-4.2-12.2-7.2-14.8-8l-0.8-0.2c0,0,6-44.7,34.6-30.3
	C577,213.2,533.7,242.9,529.8,237.8z"/>
<path class="st3" d="M529.4,237.4c-3.6-4.2-12.2-7.2-14.8-8c0.5-1.3,1-2.3,1-2.3l25.4-15.3C541,211.8,541.7,229.5,529.4,237.4z"/>
<path class="st10" d="M551.2,184c-0.7-38.4-26.8-65.8-61-46.1c-28,16.1-25,46.8-9.6,62.6c9.1,9.3,1.8,18.2,16.1,30.2
	c4.9,4.1,17.2,8.7,21.5,7.3c15.1-4.9,27.5-21.6,25.3-28.5"/>
<path class="st2" d="M551.2,184c-0.7-38.4-26.8-65.8-61-46.1c-28,16.1-25,46.8-9.6,62.6c9.1,9.3,1.8,18.2,16.1,30.2
	c4.9,4.1,17.2,8.7,21.5,7.3c15.1-4.9,27.5-21.6,25.3-28.5"/>
<path class="st2" d="M494.4,189.7c0,0,5.7-7.4,17-5.5"/>
<path class="st2" d="M482.3,193.6c0,0-5.7-2-6.3,0.2"/>
<path class="st3" d="M509.4,195.6c0.6-0.5,0.5-1.7-0.3-2.8c-0.8-1.1-1.9-1.6-2.6-1.1c-0.6,0.5-0.5,1.7,0.2,2.8
	C507.6,195.5,508.7,196,509.4,195.6z"/>
<path class="st3" d="M487.6,200.6c0.8,1.1,0.9,2.3,0.2,2.8c-0.6,0.5-1.8,0-2.5-1.1c-0.7-1.1-0.9-2.3-0.2-2.8
	C485.7,199,486.8,199.5,487.6,200.6z"/>
<path class="st10" d="M488.2,198.8c2.7,2.3,6,5.6,3,12.1c-3,6.5,4.4,7.2,8.4,4.5"/>
<path class="st2" d="M488.2,198.8c2.7,2.3,6,5.6,3,12.1c-3,6.5,4.4,7.2,8.4,4.5"/>
<path class="st10" d="M502.3,214.2c0,0,2.6-2.4-1.6-5L502.3,214.2z"/>
<path class="st2" d="M502.3,214.2c0,0,2.6-2.4-1.6-5"/>
<path class="st10" d="M500.2,222.4c0.8,1.3,4.7-0.4,5.9-0.6c1-0.7,2-1.3,3.1-1.9c1.1-0.5,4.5-2.3,4.7-4.2"/>
<path class="st2" d="M500.2,222.4c0.8,1.3,4.7-0.4,5.9-0.6c1-0.7,2-1.3,3.1-1.9c1.1-0.5,4.5-2.3,4.7-4.2"/>
<path class="st10" d="M502.9,224.7c3.6,3.5,9.7-0.3,10.9-5.5L502.9,224.7z"/>
<path class="st2" d="M502.9,224.7c3.6,3.5,9.7-0.3,10.9-5.5"/>
<path class="st3" d="M504.6,127.5c-24.6,4.6-38.1,21.1-38.4,36c0,0-9.3,17.5-2.1,30.2c0,0,0.4-0.4,0.9-1c-0.3-2.1-0.5-4.3-0.5-6.4
	c0-2.1,0.2-4.3,0.6-6.4c0.5-2.1,1.3-4.1,2.3-5.9c-0.9,1.9-1.5,3.9-1.8,6c-0.2,2.1-0.3,4.2-0.1,6.3c0.2,1.8,0.4,3.5,0.8,5.2
	c1.4-1.1,3.1-2.2,4.8-2c0.8,0.1,1.5,0.1,2.3,0c-0.3-1.7-0.6-3.5-0.8-5.2c-0.2-2-0.3-4.1-0.2-6.1c0.1-2,0.4-4,0.9-6
	c-0.2,2-0.3,4-0.1,6c0.2,2,0.5,3.9,1,5.9c0.4,1.8,0.9,3.5,1.5,5.2c2-0.5,3.8-1.4,5.4-2.6c0.4-0.3,0.9-0.6,1.4-0.8
	c-0.1-0.8-0.2-1.7-0.3-2.5c-0.3-2.4-0.4-4.8-0.2-7.2c0.1-2.4,0.6-4.8,1.4-7c-0.4,2.3-0.4,4.7-0.1,7c0.3,2.3,0.8,4.6,1.5,6.8
	c0.3,1,0.6,2,1,2.9c1,0.3,2.1,0.4,3.1,0.2c1.9-0.4,3.8-0.3,5.5-1c-0.2-0.6-0.4-1.2-0.6-1.8c-0.7-2.1-1.2-4.3-1.5-6.5
	c-0.3-2.2-0.4-4.4-0.2-6.6c0,2.2,0.3,4.4,0.7,6.5c0.5,2.1,1.1,4.2,1.9,6.2c0.2,0.5,0.5,1.1,0.7,1.6c0.4-0.3,0.8-0.6,1.1-1
	c2.3-2.5,5.8-4.1,7.8-3.1c0.4,0.2,0.9,0.4,1.3,0.6c-0.1-0.2-0.2-0.5-0.2-0.7c-0.6-2.2-1.2-4.5-1.6-6.8c-0.4-2.3-0.5-4.6-0.5-7
	c0.2,2.3,0.6,4.6,1.3,6.8c0.6,2.2,1.4,4.4,2.3,6.5c0.2,0.6,0.5,1.1,0.8,1.7c1.6,0.2,3.2-0.2,3.7-1.9c0.1-0.4,0.3-0.8,0.7-1.1
	c-0.1-0.3-0.3-0.6-0.4-1c-0.6-1.7-1.1-3.4-1.6-5.1c-0.4-1.7-0.8-3.4-1-5.2c-0.2-1.7-0.3-3.5-0.3-5.2c0.3,1.7,0.6,3.4,1.1,5.1
	c0.5,1.7,1,3.3,1.7,4.9c0.7,1.6,1.4,3.1,2.2,4.6c0.3,0.6,0.7,1.2,1.1,1.9c0.6,0.2,1.1,0.5,1.6,0.8c0,0-4.4-10.9-3.5-21.4
	c0,0,5.3,22.4,21.2,30.6l3.3,5.9c0,0,5.7-4.7,10.2-0.5c4.5,4.2,6.1,1.4,6.1,1.4s7.1-13.8-1.4-40
	C543.8,128.7,524.2,123.9,504.6,127.5z"/>
<path class="st10" d="M544.7,201.1c0,0-0.3,2.2,2.4,2.4c2.7,0.2,4.9-5.4,6.3-15.5c1.4-10.8-1.9-17.3-8.3-17.3
	c-6.4-0.1-8.2,6.7-8.7,10.7c-0.5,3.3-0.3,6.7,0.4,10"/>
<path class="st2" d="M544.7,201.1c0,0-0.3,2.2,2.4,2.4c2.7,0.2,4.9-5.4,6.3-15.5c1.4-10.8-1.9-17.3-8.3-17.3
	c-6.4-0.1-8.2,6.7-8.7,10.7c-0.5,3.3-0.3,6.7,0.4,10"/>
<path class="st6" d="M549.2,199.7c0,0.3-0.1,0.6-0.2,0.8c-0.2,0.2-0.4,0.4-0.7,0.5c-0.3,0.1-0.6,0.1-0.9,0.1
	c-0.3-0.1-0.5-0.2-0.8-0.4c-0.2-0.2-0.3-0.5-0.4-0.8c-0.1-0.3,0-0.6,0.1-0.9s0.3-0.5,0.5-0.7c0.2-0.2,0.5-0.2,0.8-0.2
	c0.4,0,0.8,0.2,1,0.4C549,199,549.2,199.3,549.2,199.7z"/>
<path class="st10" d="M510.5,217.2c0,0-3.9,1-4.9,1.3c-0.8,0.4-1.5,1.1-2,1.8c0,0-2.4,0.1-2.9,1.1"/>
<path class="st2" d="M510.5,217.2c0,0-3.9,1-4.9,1.3c-0.8,0.4-1.5,1.1-2,1.8c0,0-2.4,0.1-2.9,1.1"/>
<g class="st4">
	<path class="st5" d="M500.7,150.1c0,0-4.8,9.9-2.7,24.2"/>
	<path class="st5" d="M491.7,150.1c0,0-10,12.9-4.2,31.2"/>
	<path class="st5" d="M476,183.9c0.2-0.8-4.9-20.1,4-30.2"/>
	<path class="st5" d="M463.1,181.2c0,0,2.5-18.8,11.7-25.5"/>
	<path class="st5" d="M514.6,150.1c0,0,10.9,18.3,25.1,17.3"/>
	<path class="st5" d="M519.7,144.4c0,0,13.6,12.2,25.1,9.3"/>
</g>
</svg>
