<svg version="1.1" xmlns="http://www.w3.org/2000/svg" x="0px" y="0px" width="330" height="520" viewBox="0 0 330 520"><style type="text/css">.st0{fill:#EECFB2;}.st1{fill:#C8866A;}.st2{fill:#E3B798;}.st3{fill:#D89C7A;}.st4{fill:#5B4655;}.st5{fill:#273850;}.st6{fill:#30252E;}.st7{fill:#FFCC00;}.st8{fill:#C19A02;}.st9{fill:#F3F0ED;}.st10{fill:#8F7301;}.st11{fill:#4E6130;}.st12{fill:#7B9C4E;}.st13{fill:#DDD3CC;}.st14{fill:#B19AAD;}.st15{fill:#C8B5C2;}.st16{fill:#785A70;}.st17{fill:#4D6B99;}.st18{fill:#6585B4;}.st19{fill:#8AAD5A;}.st20{fill:#698341;}.st21{fill:none;stroke:#FF0000;stroke-width:0.05;stroke-linecap:round;stroke-linejoin:round;stroke-miterlimit:10;}.st22{fill:#794224;}.st23{fill:#5B2113;}.st24{fill:#E7E0DA;}.st25{fill:#3C5477;}.st26{fill:#FFFFFF;}.st27{fill:#9A5C47;}.st28{fill:#EFDEA3;}.st29{fill:#333333;}.st30{fill:#683C31;}.st31{fill:#A33A21;}.st32{fill:#C94727;}</style><g><path class="st0" d="M192.35,99.67c-3.41-0.9-6.89,1.1-10.47,6.02c-2.71,10.17-4.35,19.41-4.92,27.71c4.95,2.44,9.14,0.64,12.52-5.42C194.99,116.24,195.96,106.8,192.35,99.67L192.35,99.67z"/><path class="st1" d="M179.43,109.48c-0.47,2.14-0.97,4.32-1.54,6.56l-3.01,19.17c0.64,0.57,1.27,1.07,1.87,1.51c0.03-1.1,0.1-2.21,0.2-3.31c0.57-8.3,2.21-17.53,4.92-27.71C181.07,106.8,180.27,108.07,179.43,109.48L179.43,109.48z"/><path class="st2" d="M192.35,99.67c3.61,7.13,2.64,16.56-2.88,28.31c-3.38,6.06-7.56,7.86-12.52,5.42c-0.1,1.1-0.17,2.21-0.2,3.31c6.02,4.12,11.44,0.7,16.3-10.17c5.12-11.75,5.62-20.35,1.57-25.8C193.85,100.24,193.11,99.87,192.35,99.67L192.35,99.67z"/><path class="st0" d="M150.48,68.72l-1.51-0.07c-10.71,2.71-21.42,2.38-32.12-0.94c-14.42-1.44-24.46,2.54-30.08,11.95l1.84,9.1c-4.75,7.6-5.32,18.04-1.67,31.25l-4.32,0.8l1.87,16.03c0.87,9.27,3.78,17.74,8.77,25.33c0.77,1.17,1.61,2.34,2.48,3.51l17.87,22.25c0.1,0.13,0.2,0.27,0.3,0.37c12.55,4.79,23.39,3.01,32.49-5.25l10.84-15.16c6.76-10.04,10.84-19.17,12.25-27.41l3.61-25.6c0.84-4.45,1.47-8.7,1.91-12.78l-8.03-16.03C172.3,75.01,166.81,69.22,150.48,68.72L150.48,68.72z"/><path class="st1" d="M80.51,109.48c-0.84-1.47-1.67-2.78-2.51-3.88c1.21,5.42,2.18,10.61,2.94,15.56c0.9,6.02,1.44,11.68,1.64,17c0.64-0.37,1.27-0.8,1.91-1.31l-1.87-16.03l-0.57-4.79C81.48,113.79,80.98,111.62,80.51,109.48L80.51,109.48z"/><path class="st2" d="M65.32,100.74c-0.3,0.4-0.6,0.84-0.84,1.27c5.66-0.84,9.77,2.81,12.35,10.94c1.07,3.11,1.87,5.92,2.44,8.5c1.84,8.8,0.5,14.36-4.02,16.63c2.38,1.41,4.82,1.44,7.33,0.07c-0.2-5.32-0.74-10.98-1.64-17c-0.77-4.95-1.74-10.14-2.94-15.56C73.65,99.64,69.44,98.03,65.32,100.74L65.32,100.74z"/><path class="st0" d="M79.27,121.46c-0.57-2.58-1.37-5.39-2.44-8.5c-2.58-8.13-6.69-11.78-12.35-10.94c-3.11,5.49-2.31,13.65,2.44,24.53c2.64,5.99,5.42,9.84,8.33,11.54C79.78,135.81,81.11,130.26,79.27,121.46L79.27,121.46z"/><path class="st2" d="M183.08,89.5c0.5-5.02,0.33-10.34-0.5-15.96c-3.65-25-19.84-37.78-48.65-38.31h-0.17h-7.36C97.38,35.66,81.05,48.41,77.4,73.54c-0.84,5.66-1,10.98-0.54,15.96c0.44,4.32,1.64,10.98,3.65,19.98c0.47,2.14,0.97,4.32,1.54,6.56l0.57,4.79l4.32-0.8c-3.65-13.22-3.08-23.66,1.67-31.25l-1.84-9.1c5.62-9.4,15.66-13.39,30.08-11.95c10.71,3.31,21.42,3.65,32.12,0.94l1.51,0.07c16.33,0.5,21.82,6.29,16.5,17.37l8.03,16.03c-0.44,4.08-1.07,8.33-1.91,12.78l-3.61,25.6c-1.41,8.23-5.49,17.37-12.25,27.41l-10.84,15.16c-9.1,8.27-19.94,10.04-32.49,5.25c3.78,4.95,9.74,7.5,17.84,7.6c9.47-1.1,15.8-4.58,18.97-10.44l16.5-25c0.37-0.6,0.7-1.21,1.04-1.81c4.32-7.53,6.53-15.33,6.63-23.46l3.01-19.17c0.57-2.24,1.07-4.42,1.54-6.56C181.44,100.44,182.64,93.78,183.08,89.5L183.08,89.5z"/><path class="st3" d="M168.25,158.67c-0.33,0.6-0.67,1.2-1.04,1.81l-16.5,25c-3.18,5.86-9.5,9.34-18.97,10.44c-8.1-0.1-14.05-2.64-17.84-7.6c-0.1-0.1-0.2-0.23-0.3-0.37L95.74,165.7c-0.87-1.17-1.71-2.34-2.48-3.51c1.24,6.29,2.34,12.45,3.28,18.44c4.58,8.53,10.37,15.16,17.33,19.94c9.94,5.79,20.91,6.96,32.89,3.48c1.57-0.17,3.05-0.2,4.42-0.13l-0.1-0.87l0.1,0.87c6.22,0.27,10.81,2.74,13.79,7.39c0.03-1.24,0.03-2.44,0.07-3.68c0.03-1.1,0.07-2.18,0.1-3.28C165.57,189.72,166.61,174.5,168.25,158.67L168.25,158.67z"/><path class="st3" d="M180.9,223.19c-2.81,0.2-4.62,1.41-5.39,3.65l27.81,14.59l-1.87-5.39l-15.79-9.87L180.9,223.19L180.9,223.19z"/><path class="st4" d="M186.82,221.48c1.17-2.61,3.11-3.75,5.79-3.38l0.67-5.39l-15.33-4.55c3.25,4.05,4.25,9.04,2.94,15.03l4.75,2.98C185.89,224.26,186.25,222.72,186.82,221.48L186.82,221.48z"/><path class="st5" d="M193.28,212.71l-0.67,5.39c0.57,0.07,1.2,0.2,1.84,0.43l16.33,10.51l16.8,14.79l0.27-3.38l1.57-19.94l0.27-3.35C218.21,211.17,206.06,209.7,193.28,212.71L193.28,212.71z"/><path class="st6" d="M164.97,211.31c-0.03,1.14-0.03,2.28-0.03,3.45l5.29,2.38c-0.6-3.82-2.34-6.99-5.19-9.5C165.01,208.86,165.01,210.07,164.97,211.31L164.97,211.31z"/><path class="st2" d="M164.94,214.75c0-1.17,0-2.31,0.03-3.45c-2.98-4.65-7.56-7.13-13.79-7.39l3.95,34.87c-13.82,15.73-31.39,18.2-52.74,7.39c3.11,4.45,6.26,8.1,9.44,10.94c15.83,14.12,32.93,9.04,51.23-15.29c0.74-0.97,1.47-2.01,2.21-3.04c4.22-8.7,5.86-15.93,4.95-21.65L164.94,214.75L164.94,214.75z"/><path class="st0" d="M151.19,203.91c-1.37-0.07-2.84-0.03-4.42,0.13c-11.98,3.48-22.96,2.31-32.89-3.48c-6.96-4.79-12.75-11.41-17.33-19.94c1.37,8.73,2.41,17.2,3.11,25.36c0.17,1.91,0.3,3.78,0.43,5.66c0.17,2.51,0.33,5.02,0.43,7.5c0.23,4.75,0.33,9.4,0.33,13.92c-0.03,2.78,0.13,6.63,0.47,11.58c0.37,0.54,0.7,1.04,1.07,1.54c21.35,10.81,38.92,8.33,52.74-7.39L151.19,203.91L151.19,203.91z"/><path class="st3" d="M175.78,235.33c-2.51,0.7-4.18,1.81-4.95,3.35l24.26,13.72l-3.45-6.32L175.78,235.33L175.78,235.33z"/><path class="st3" d="M186.52,257.99l-14.02-10.27c-2.24,0.54-3.82,1.51-4.72,2.88l21.25,13.18L186.52,257.99L186.52,257.99z"/><path class="st4" d="M244.38,226.03l-14.96-5.52l-1.57,19.94c1.84,0,3.51,0.27,4.95,0.84c3.25,1.27,5.45,3.95,6.69,8.07l3.95,19.61c7.13,18.17,16.36,35.24,27.64,51.16l13.45-5.89C271.38,269.46,258,240.05,244.38,226.03L244.38,226.03z"/><path class="st2" d="M100.52,219.14l-5.76,3.71c-0.97,6.53,1.2,13.79,6.56,21.78c-0.33-4.95-0.5-8.8-0.47-11.58C100.86,228.54,100.76,223.89,100.52,219.14L100.52,219.14z"/><path class="st6" d="M94.77,222.85l5.76-3.71c-0.1-2.48-0.27-4.99-0.43-7.5C97.11,215.09,95.34,218.84,94.77,222.85L94.77,222.85z"/><polygon class="st7" points="54.88,266.62 53.04,293.26 96.27,363.53 54.88,266.62 "/><polygon class="st8" points="73.55,263.81 54.88,266.62 96.27,363.53 96.27,363.56 107.42,381.67 58.96,268.96 72.72,266.99 127.9,389.26 131.44,388.46 73.55,263.81 "/><polygon class="st9" points="72.72,266.99 58.96,268.96 107.42,381.67 114.04,392.44 127.9,389.26 72.72,266.99 "/><path class="st10" d="M131.44,388.46l-3.55,0.8l-12.11,61.64c0.97-0.1,1.97-0.24,3.01-0.37l1.91-9.34L131.44,388.46L131.44,388.46z"/><path class="st3" d="M118.79,450.53l-1.17,5.35c-5.86,5.25-16.66,8.3-32.39,9.07l17.84,0.94c3.55,0.23,6.86-0.03,9.94-0.74c1-0.23,2.01-0.54,2.98-0.9l4.72-3.45c0.74-0.6,1.37-1.24,1.94-1.91c3.65-4.48,2.98-10.37-1.94-17.7L118.79,450.53L118.79,450.53z"/><path class="st2" d="M78.54,406.13c-0.9-1.24-1.74-2.11-2.51-2.54c2.71,9.4-0.87,17.73-10.74,25l4.08,4.69C79.27,423.26,82.32,414.19,78.54,406.13L78.54,406.13z"/><path class="st3" d="M86.97,474.73c0.1,0.03,0.23,0.03,0.37,0.03c4.32,0.44,8.33,0.64,12.05,0.53c4.38-0.1,8.37-0.57,11.88-1.4c4.45-1.07,8.2-2.71,11.24-4.95c1.57-2.01,2.18-4.08,1.81-6.19l-11.24,7.63L86.97,474.73L86.97,474.73z"/><path class="st3" d="M81.38,492.63l3.58-0.8l12.21-2.74l2.64-0.6l8.97-2.01l2.78-0.64c3.95-0.64,6.63-2.21,8-4.78c-11.78,3.65-25,6.42-39.65,8.4l-10.27-2.94C73.55,489.72,77.47,491.76,81.38,492.63L81.38,492.63z"/><polygon class="st11" points="84.96,491.83 81.38,492.63 78.24,515.42 81.72,515.42 84.96,491.83 "/><path class="st12" d="M81.38,492.63c-3.92-0.87-7.83-2.91-11.75-6.12c-4.92-4.05-9.8-9.91-14.69-17.6c-12.58-3.98-22.86-8.9-30.85-14.69l27.07,30.62l27.07,30.59L81.38,492.63L81.38,492.63z"/><polygon class="st13" points="84.96,491.83 81.72,515.42 92.99,515.42 97.18,489.08 84.96,491.83 "/><polygon class="st11" points="99.82,488.48 97.18,489.08 92.99,515.42 95.97,515.42 96.88,509.16 99.82,488.48 "/><polygon class="st10" points="111.57,485.84 108.79,486.47 104.27,509.46 106.71,509.56 111.57,485.84 "/><polygon class="st13" points="108.79,486.47 99.82,488.48 96.88,509.16 104.27,509.46 108.79,486.47 "/><path class="st14" d="M271.08,320.13c1.71,2.38,3.45,4.75,5.22,7.09l10.41-5.39c-0.74-2.58-1.47-5.12-2.18-7.6L271.08,320.13L271.08,320.13z"/><path class="st3" d="M286.71,321.83l-10.41,5.39c3.92,5.12,8.03,10.14,12.42,15.03c1.74,1.84,3.38,3.65,4.89,5.42C291.29,338.6,289.02,329.97,286.71,321.83L286.71,321.83z"/><path class="st5" d="M222.7,299.05c-11.01-4.01-20.68-10.31-29.01-18.91l38.08,81.25l21.01,39.22l15.39-9.34L222.7,299.05L222.7,299.05z"/><path class="st14" d="M175.51,226.83c0.77-2.24,2.58-3.45,5.39-3.65c1.31-5.99,0.3-10.98-2.94-15.03c-2.91-3.11-7.19-4.38-12.82-3.81c-0.03,1.1-0.07,2.18-0.1,3.28c2.84,2.51,4.58,5.69,5.19,9.5c0.9,5.72-0.74,12.95-4.95,21.65c-0.74,1.04-1.47,2.07-2.21,3.04c-2.38,5.25-3.58,10.47-3.55,15.73c-5.42,9.7-15.19,14.09-29.35,13.18c-14.36-0.94-26.84-5.76-37.51-14.46c6.06,7.09,15.06,12.95,27,17.53c15.02,4.72,27.97,2.61,38.92-6.32l9.27-8.83c-1.31-3.48-1.34-6.16-0.07-8.06c0.9-1.37,2.48-2.34,4.72-2.88c-2.24-3.85-2.81-6.86-1.67-9.04c0.77-1.54,2.44-2.64,4.95-3.35C174.88,231.68,174.78,228.84,175.51,226.83L175.51,226.83z"/><path class="st2" d="M192.61,218.1c-2.68-0.37-4.62,0.77-5.79,3.38c14.22,6.19,30.45,17.64,48.72,34.33l2.51,18.64c11.75,29.55,27.87,59.13,48.45,88.68c10.74,17.23,11.75,33.66,2.98,49.29c2.31,0.5,4.68,0.6,7.16,0.33c2.98-3.01,5.45-6.09,7.43-9.2c10.47-16.63,6.96-35.27-10.47-55.88c-1.51-1.77-3.15-3.58-4.89-5.42c-4.38-4.89-8.5-9.91-12.42-15.03c-1.77-2.34-3.51-4.72-5.22-7.09c-11.28-15.93-20.51-33-27.64-51.16l-3.95-19.61c-1.24-4.12-3.45-6.79-6.69-8.07l0.4,7.5l-5.62-4.95l-16.8-14.79l-16.33-10.51C193.82,218.3,193.18,218.17,192.61,218.1L192.61,218.1z"/><path class="st0" d="M186.82,221.48c-0.57,1.24-0.94,2.78-1.17,4.68l15.79,9.87l1.87,5.39l-27.81-14.59c-0.74,2.01-0.64,4.85,0.27,8.5l15.86,10.74l3.45,6.32l-24.26-13.72c-1.14,2.18-0.57,5.19,1.67,9.04l14.02,10.27l2.51,5.79l-21.25-13.18c-1.27,1.91-1.24,4.58,0.07,8.06l15.39,8.43c3.21,4.82,6.69,9.17,10.44,13.05c8.33,8.6,18,14.89,29.01,18.91l45.48,92.22c5.79,12.25,12.92,19.31,21.32,21.15c8.77-15.63,7.76-32.06-2.98-49.29c-20.58-29.55-36.71-59.13-48.45-88.68l-2.51-18.64C217.28,239.11,201.05,227.67,186.82,221.48L186.82,221.48z"/><path class="st15" d="M159.52,257.55c-0.03-5.25,1.17-10.47,3.55-15.73c-18.3,24.33-35.4,29.41-51.23,15.29c-14.02-10.34-20.71-21.35-20.08-33.03l-1.31-11.51c-2.54,2.84-4.75,6.39-6.63,10.64c-1.81,13.02,1.14,24.06,8.83,33.06c10.68,8.7,23.16,13.52,37.51,14.46C144.33,271.64,154.1,267.26,159.52,257.55L159.52,257.55z"/><path class="st3" d="M232.8,241.29c-1.44-0.57-3.11-0.84-4.95-0.84l-0.27,3.38l5.62,4.95L232.8,241.29L232.8,241.29z"/><path class="st4" d="M83.83,223.22c-2.08,1.44-4.25,2.84-6.49,4.28c-0.64,9.14,1.2,17.47,5.52,25c6.73,11.81,19.51,21.58,38.35,29.31c15.63,3.45,29.78,2.17,42.5-3.82l46.55,95.67l-3.65,73.95c-10.47,27.34-29.78,47.92-57.92,61.74c23.62-4.95,42.73-14.66,57.32-29.15v31.02l-160.22,6.53l-0.6,3.55h188c0.84-7.8,1-14.36,0.5-19.68c-0.33-3.35-0.94-6.22-1.77-8.6c-0.43-1.24-0.97-2.31-1.54-3.28V451.5l-5.09-8.47l4.68-58.79l1.81-22.86l-38.08-81.25c-3.75-3.88-7.23-8.23-10.44-13.05l-15.39-8.43l-9.27,8.83c-10.94,8.93-23.89,11.04-38.92,6.32c-11.95-4.58-20.95-10.44-27-17.53C84.96,247.28,82.02,236.24,83.83,223.22L83.83,223.22z"/><path class="st16" d="M77.33,227.5c-11.21,6.99-24.76,13.65-40.66,19.98c-17.7,10.01-28.31,44.17-31.82,102.56l9.4-4.15l4.72-69.74l26.37-1.87l9.54-7.66l18.67-2.81l57.89,124.65L120.7,441.2c4.92,7.33,5.59,13.22,1.94,17.7c0.9,1.31,1.44,2.58,1.67,3.85c0.37,2.11-0.23,4.18-1.81,6.19c0.4,1.24,0.57,2.38,0.54,3.48c-0.1,1.97-0.9,3.75-2.48,5.32c-0.17,1.24-0.5,2.34-1,3.31c-1.37,2.58-4.05,4.15-8,4.78l-4.85,23.73l-2.44-0.1l-7.39-0.3l-0.9,6.26h-2.98H81.72h-3.48l-27.07-30.59l-5.39,32.93L206,511.23v-31.02c-14.59,14.49-33.7,24.19-57.32,29.15c28.14-13.82,47.45-34.4,57.92-61.74l3.65-73.95L163.7,278c-12.72,5.99-26.87,7.26-42.5,3.82c-18.84-7.73-31.62-17.5-38.35-29.31C78.54,244.97,76.7,236.64,77.33,227.5L77.33,227.5z"/><path class="st14" d="M100.09,211.64c-0.13-1.87-0.27-3.75-0.43-5.66c-3.45,1.37-6.53,3.58-9.2,6.59l1.31,11.51c-0.64,11.68,6.06,22.69,20.08,33.03c-3.18-2.84-6.32-6.49-9.44-10.94c-0.37-0.5-0.7-1-1.07-1.54c-5.35-8-7.53-15.26-6.56-21.78C95.34,218.84,97.11,215.09,100.09,211.64L100.09,211.64z"/><path class="st14" d="M23.19,360.82c-1.84-0.6-3.71-1.04-5.62-1.27v4.01l-13.52,3.61c-0.03,1.31-0.1,2.61-0.13,3.92c6.53-3.55,13.02-3.58,19.54-0.1L23.19,360.82L23.19,360.82z"/><path class="st0" d="M3.55,389.4v2.64c-2.51,29.65,4.28,50.33,20.41,62.07c0.03,0.03,0.07,0.07,0.13,0.1c8,5.79,18.27,10.71,30.85,14.69c4.89,7.7,9.77,13.55,14.69,17.6l10.27,2.94c14.66-1.97,27.87-4.75,39.65-8.4c0.5-0.97,0.84-2.08,1-3.31c-2.94,1.57-6.56,2.91-10.84,4.01c-3.48,0.87-7.39,1.57-11.71,2.11c-2.84,0.37-5.92,0.64-9.17,0.84l25.26-8.1l8.93-4.18c0.03-1.1-0.13-2.24-0.54-3.48c-3.04,2.24-6.79,3.88-11.24,4.95c-3.51,0.84-7.5,1.31-11.88,1.4c-3.71,0.1-7.73-0.1-12.05-0.53c-0.13,0-0.27,0-0.37-0.03l26.1-4.35l11.24-7.63c-0.23-1.27-0.77-2.54-1.67-3.85c-0.57,0.67-1.2,1.31-1.94,1.91l-4.72,3.45c-0.97,0.37-1.97,0.67-2.98,0.9c-3.08,0.7-6.39,0.97-9.94,0.74l-17.84-0.94c15.73-0.77,26.54-3.81,32.39-9.07l1.17-5.35c-1.04,0.13-2.04,0.27-3.01,0.37c-4.55,0.53-8.13,0.94-10.74,1.17c-0.67,0.07-1.34,0.13-1.97,0.17c-4.65,0.27-8.83,0.03-12.55-0.67c-1.14-0.23-2.24-0.5-3.31-0.8c-8.73-2.64-14.66-8.47-17.84-17.5l-4.08-4.69c9.87-7.26,13.45-15.59,10.74-25c-1.97-1.1-3.58,0.27-4.85,4.18c-2.38,4.72-5.49,8.5-9.34,11.31c-5.59,2.11-9.3,6.86-11.14,14.19l-10.88-7.66c-15.43-10.88-24.73-22.92-27.94-36.07l5.96-1.37l-1.41-11.91H3.78C3.65,380.53,3.58,384.91,3.55,389.4L3.55,389.4z"/><path class="st15" d="M17.57,359.55c-4.35-0.57-8.77-0.1-13.28,1.34c-0.1,2.04-0.17,4.15-0.23,6.29l13.52-3.61V359.55L17.57,359.55z"/><path class="st3" d="M120.57,477.74c1.57-1.57,2.38-3.35,2.48-5.32l-8.93,4.18l-25.26,8.1c3.25-0.2,6.33-0.47,9.17-0.84c4.32-0.53,8.23-1.24,11.71-2.11C114.01,480.65,117.62,479.31,120.57,477.74L120.57,477.74z"/><path class="st17" d="M231.76,361.39l-1.81,22.86l21.89,100.22l-19.94,8.57c0.84,2.38,1.44,5.25,1.77,8.6l43.37-4.38l-24.26-96.64L231.76,361.39L231.76,361.39z"/><path class="st18" d="M225.27,443.04l5.09,8.47v38.25c0.57,0.97,1.1,2.04,1.54,3.28l19.94-8.57l-21.89-100.22L225.27,443.04L225.27,443.04z"/><path class="st17" d="M304.08,403.55c-1.97,3.11-4.45,6.19-7.43,9.2c-2.48,0.27-4.85,0.17-7.16-0.33c-8.4-1.84-15.53-8.9-21.32-21.15l-15.39,9.34l11.78,3.58c11.34,10.17,22.25,16.63,32.66,19.41l17.53,38.78c-3.98,13.35-16.56,24.96-37.71,34.87c24.66-3.98,41.29-15.96,49.96-35.94L304.08,403.55L304.08,403.55z"/><path class="st18" d="M264.56,404.19l-11.78-3.58l24.26,96.64c21.15-9.9,33.73-21.52,37.71-34.87l-17.53-38.78C286.81,420.82,275.9,414.36,264.56,404.19L264.56,404.19z"/><path class="st4" d="M53.04,293.26l1.84-26.64l-9.54,7.66l-26.37,1.87l-4.72,69.74l-9.4,4.15c-0.23,3.51-0.4,7.13-0.57,10.84c4.52-1.44,8.93-1.91,13.28-1.34c1.91,0.23,3.78,0.67,5.62,1.27l-1.91-77.87l22.85-4.18L53.04,293.26L53.04,293.26z"/><path class="st11" d="M98.08,396.86l-3.51,0.47l-7.36,53.44c1.07,0.3,2.18,0.57,3.31,0.8L98.08,396.86L98.08,396.86z"/><path class="st2" d="M3.92,371.09c-0.07,1.71-0.1,3.41-0.13,5.15h12.65l1.41,11.91l5.99-1.41l-0.37-15.76C16.93,367.51,10.44,367.54,3.92,371.09L3.92,371.09z"/><path class="st2" d="M39.82,425.6l10.88,7.66c-10.27-10.81-19.14-23.26-26.64-37.34c-3.92-4.05-7.96-6.16-12.18-6.39C15.09,402.68,24.39,414.73,39.82,425.6L39.82,425.6z"/><path class="st3" d="M23.96,391.37l-0.13-4.62l-5.99,1.41l-5.96,1.37c4.22,0.23,8.27,2.34,12.18,6.39L23.96,391.37L23.96,391.37z"/><path class="st19" d="M23.83,386.75l0.13,4.62l24.03,28.98c17.33-10.21,26.07-28.44,26.24-54.78l-52.94-82.62l1.91,77.87l0.27,10.17L23.83,386.75L23.83,386.75z"/><path class="st12" d="M61.84,419.08c3.85-2.81,6.96-6.59,9.34-11.31c1.27-3.92,2.88-5.29,4.85-4.18c0.77,0.43,1.61,1.31,2.51,2.54c3.78,8.06,0.74,17.13-9.17,27.14c3.18,9.03,9.1,14.86,17.84,17.5l7.36-53.44l-20.35-31.76c-0.17,26.34-8.9,44.57-26.24,54.78l-24.03-28.98l0.1,4.55c7.5,14.09,16.36,26.54,26.64,37.34C52.54,425.94,56.25,421.19,61.84,419.08L61.84,419.08z"/><path class="st13" d="M112.17,394.98l-14.09,1.87l-7.56,54.71c3.71,0.7,7.9,0.94,12.55,0.67L112.17,394.98L112.17,394.98z"/><polygon class="st20" points="53.04,293.26 44.14,278.77 21.28,282.95 74.22,365.57 94.57,397.33 98.08,396.86 25.77,285.26 42.36,282.45 112.17,394.98 115.31,394.52 114.04,392.44 107.42,381.67 96.27,363.56 96.27,363.53 53.04,293.26 "/><path class="st13" d="M114.04,392.44l1.27,2.08l-10.27,57.56c2.61-0.23,6.19-0.64,10.74-1.17l12.11-61.64L114.04,392.44L114.04,392.44z"/><polygon class="st9" points="112.17,394.98 42.36,282.45 25.77,285.26 98.08,396.86 112.17,394.98 "/><path class="st11" d="M112.17,394.98l-9.1,57.26c0.64-0.03,1.31-0.1,1.97-0.17l10.27-57.56L112.17,394.98L112.17,394.98z"/><line class="st21" x1="151.19" y1="203.91" x2="151.09" y2="203.04"/><path class="st3" d="M141.45,138.02l-4.08-5.92l3.58,6.83c0.43,1.04,0.6,1.91,0.5,2.58c0.3,0.23,0.54,0.54,0.77,0.97C142.75,141.27,142.49,139.8,141.45,138.02L141.45,138.02z"/><path class="st1" d="M129.3,145.02c-0.03,0-0.03,0-0.07,0c-1.91,0.07-3.85-0.54-5.76-1.77c-2.98-2.04-5.05-2.64-6.29-1.77c-0.3,0.23-0.57,0.57-0.77,1c0.54,1.17,1.84,2.04,3.92,2.68c1.31-1.64,3.45-0.7,6.43,2.84c0.17,0.23,0.33,0.47,0.5,0.64l0.13,0.13c0.57,0.57,1.2,0.84,1.91,0.84c0.74,0,1.37-0.27,1.94-0.84l0.13-0.13c0.17-0.17,0.33-0.4,0.5-0.64c2.98-3.55,5.12-4.48,6.39-2.84c2.11-0.64,3.41-1.51,3.95-2.68c-0.23-0.43-0.47-0.74-0.77-0.97c-1.24-0.9-3.31-0.33-6.29,1.74c-1.91,1.24-3.85,1.84-5.79,1.77C129.33,145.02,129.33,145.02,129.3,145.02L129.3,145.02z"/><path class="st2" d="M129.23,145.02c0.03,0,0.03,0,0.07,0c0.03,0,0.03,0,0.07,0c1.94,0.07,3.88-0.54,5.79-1.77c2.98-2.07,5.05-2.64,6.29-1.74c0.1-0.67-0.07-1.54-0.5-2.58l-3.58-6.83c-5.39-13.65-10.74-13.65-16.1,0l-3.55,6.39c-0.5,1.1-0.7,2.11-0.53,2.98c1.24-0.87,3.31-0.27,6.29,1.77C125.39,144.48,127.33,145.08,129.23,145.02L129.23,145.02z"/><path class="st3" d="M117.72,138.49l3.55-6.39l-4.12,5.92c-1.04,1.77-1.27,3.25-0.74,4.45c0.2-0.43,0.47-0.77,0.77-1C117.02,140.6,117.22,139.59,117.72,138.49L117.72,138.49z"/><path class="st22" d="M127.26,148.63c-0.17-0.17-0.33-0.4-0.5-0.64c-2.98-3.55-5.12-4.48-6.43-2.84C122.31,145.05,124.62,146.22,127.26,148.63L127.26,148.63z"/><path class="st22" d="M131.88,147.99c-0.17,0.23-0.33,0.47-0.5,0.64c2.64-2.41,4.92-3.58,6.89-3.48C137,143.51,134.86,144.45,131.88,147.99L131.88,147.99z"/><path class="st2" d="M145.26,117.04c-3.61-1.24-6.12-8.6-7.5-22.12c13.28-7.16,26.3-6.79,39.05,1.14c-2.64,11.08-7.16,18.07-13.49,20.98C157.78,118.58,151.75,118.58,145.26,117.04L145.26,117.04z"/><path class="st23" d="M146.03,83.48l-0.43,2.41c9.4-1.64,19.31,0.57,29.78,6.69l1.44,3.48c-12.75-7.93-25.77-8.3-39.05-1.14C139.14,90.57,141.92,86.76,146.03,83.48L146.03,83.48z"/><path class="st2" d="M114.54,117.04c3.61-1.24,6.12-8.6,7.5-22.12c-13.28-7.16-26.3-6.79-39.05,1.14c2.64,11.08,7.16,18.07,13.49,20.98C102.03,118.58,108.05,118.58,114.54,117.04L114.54,117.04z"/><path class="st23" d="M113.77,83.48l0.43,2.41c-9.4-1.64-19.31,0.57-29.78,6.69l-1.44,3.48c12.75-7.93,25.77-8.3,39.05-1.14C120.67,90.57,117.89,86.76,113.77,83.48L113.77,83.48z"/><path d="M113.42,102.69c0.95,0.49,1.95,1.03,2.98,1.65c-0.73-1.16-2.27-2.3-4.58-3.47l4.47,1.35c-12.86-7.45-21.44-5.01-25.78,7.31c0.16-0.3,0.32-0.62,0.49-0.92c4.9-8.85,12.27-10.88,22.09-6.09C113.21,102.58,113.32,102.64,113.42,102.69L113.42,102.69z"/><path class="st1" d="M113.1,102.53c0.35,1.22,0.6,2.41,0.76,3.52c0.51,3.87-0.08,7.15-1.81,9.83c-0.11,0.14-0.22,0.3-0.33,0.43c-5.14,0.03-10.23-0.3-15.24-1c-1.62-1.16-3.14-2.9-4.58-5.17c-0.3-0.49-0.6-1-0.89-1.52c-0.16,0.3-0.32,0.62-0.49,0.92c1.57,2.84,3.47,5.09,5.69,6.69c6.2,0.76,12.45,0.76,18.82,0c-0.97,0.03-1.95,0.05-2.92,0.08c0.11-0.14,0.22-0.27,0.33-0.41c1.95-2.71,2.57-6.01,1.87-9.94c-0.19-1.06-0.49-2.14-0.87-3.28C113.32,102.64,113.21,102.58,113.1,102.53L113.1,102.53z"/><path class="st24" d="M113.86,106.05c-0.16-1.11-0.41-2.3-0.76-3.52c-9.83-4.79-17.19-2.76-22.09,6.09c0.3,0.51,0.6,1.03,0.89,1.52c1.43,2.27,2.95,4.01,4.58,5.17c5.01,0.7,10.1,1.03,15.24,1c0.11-0.14,0.22-0.3,0.33-0.43l-15.16-1.43c-2.25-2.09-3.38-4.12-3.36-6.04C99.34,102.8,106.11,102.02,113.86,106.05L113.86,106.05z"/><path class="st9" d="M93.52,108.41c-0.03,1.92,1.11,3.95,3.36,6.04l15.16,1.43c1.73-2.68,2.33-5.96,1.81-9.83C106.11,102.02,99.34,102.8,93.52,108.41L93.52,108.41z"/><path class="st1" d="M94.28,98.69c4.2-2.36,9.31-3.03,15.32-2.03C103.92,93.78,98.8,94.46,94.28,98.69L94.28,98.69z"/><path d="M145.25,102.69c-0.95,0.49-1.95,1.03-2.98,1.65c0.73-1.16,2.27-2.3,4.58-3.47l-4.47,1.35c12.86-7.45,21.44-5.01,25.78,7.31c-0.16-0.3-0.32-0.62-0.49-0.92c-4.9-8.85-12.27-10.88-22.09-6.09C145.46,102.58,145.35,102.64,145.25,102.69L145.25,102.69z"/><path class="st1" d="M145.57,102.53c-0.35,1.22-0.6,2.41-0.76,3.52c-0.52,3.87,0.08,7.15,1.81,9.83c0.11,0.14,0.22,0.3,0.33,0.43c5.14,0.03,10.23-0.3,15.24-1c1.62-1.16,3.14-2.9,4.58-5.17c0.3-0.49,0.6-1,0.89-1.52c0.16,0.3,0.33,0.62,0.49,0.92c-1.57,2.84-3.47,5.09-5.69,6.69c-6.2,0.76-12.46,0.76-18.82,0c0.98,0.03,1.95,0.05,2.92,0.08c-0.11-0.14-0.22-0.27-0.32-0.41c-1.95-2.71-2.57-6.01-1.87-9.94c0.19-1.06,0.49-2.14,0.87-3.28C145.35,102.64,145.46,102.58,145.57,102.53L145.57,102.53z"/><path class="st24" d="M144.81,106.05c0.16-1.11,0.41-2.3,0.76-3.52c9.83-4.79,17.19-2.76,22.09,6.09c-0.3,0.51-0.59,1.03-0.89,1.52c-1.44,2.27-2.95,4.01-4.58,5.17c-5.01,0.7-10.1,1.03-15.24,1c-0.11-0.14-0.22-0.3-0.33-0.43l15.16-1.43c2.25-2.09,3.38-4.12,3.36-6.04C159.32,102.8,152.56,102.02,144.81,106.05L144.81,106.05z"/><path class="st9" d="M165.15,108.41c0.03,1.92-1.11,3.95-3.36,6.04l-15.16,1.43c-1.73-2.68-2.33-5.96-1.81-9.83C152.56,102.02,159.32,102.8,165.15,108.41L165.15,108.41z"/><path class="st1" d="M164.39,98.69c-4.2-2.36-9.31-3.03-15.33-2.03C154.75,93.78,159.87,94.46,164.39,98.69L164.39,98.69z"/><path class="st3" d="M77.24,113.24c-1.71-3.19-3.68-5.28-5.93-6.25c-3.55-0.51-4.87,2.57-3.98,9.26c0.03-0.14,0.03-0.3,0.05-0.43c1.27-10.26,4.87-9.18,10.86,3.2c-2.79,0.24-4.22,1.52-4.31,3.82c-0.05,1.95,0.89,4.66,2.84,8.12c-2.36-6.85-1.73-10.51,1.92-10.97l3.14,8.66c-0.57-3.28-1.25-6.17-1.98-8.72C79.08,117.33,78.19,115.11,77.24,113.24L77.24,113.24z"/><path class="st2" d="M67.39,115.82c2.82,0.65,5.01,2.98,6.55,7.01c0.08-2.3,1.52-3.57,4.31-3.82C72.26,106.64,68.66,105.55,67.39,115.82L67.39,115.82z"/><path class="st3" d="M182.7,113.24c1.71-3.19,3.68-5.28,5.93-6.25c3.55-0.51,4.87,2.57,3.98,9.26c-0.03-0.14-0.03-0.3-0.05-0.43c-1.27-10.26-4.87-9.18-10.86,3.2c2.79,0.24,4.22,1.52,4.31,3.82c0.05,1.95-0.89,4.66-2.84,8.12c2.36-6.85,1.73-10.51-1.92-10.97l-3.14,8.66c0.57-3.28,1.25-6.17,1.98-8.72C180.86,117.33,181.75,115.11,182.7,113.24L182.7,113.24z"/><path class="st2" d="M192.56,115.82c-2.82,0.65-5.01,2.98-6.55,7.01c-0.08-2.3-1.52-3.57-4.31-3.82C187.68,106.64,191.28,105.55,192.56,115.82L192.56,115.82z"/><path class="st1" d="M121.71,174.5c5.12-1.57,10.17-1.57,15.16,0C132.31,170.31,127.26,170.31,121.71,174.5L121.71,174.5z"/><path class="st25" d="M110.77,107.15c0-1.79-0.62-3.3-1.9-4.58c-1.25-1.25-2.76-1.87-4.55-1.87c-1.79,0-3.3,0.62-4.58,1.87c-1.24,1.27-1.87,2.79-1.87,4.58c0,1.79,0.62,3.3,1.87,4.55c1.27,1.27,2.79,1.9,4.58,1.9c1.38,0,2.6-0.38,3.66-1.11c0.3-0.24,0.6-0.49,0.89-0.79C110.14,110.46,110.77,108.94,110.77,107.15L110.77,107.15z M104.32,101.06c1.68,0,3.11,0.6,4.28,1.76c1.16,1.19,1.76,2.63,1.76,4.3c0,1.68-0.6,3.11-1.76,4.28c-0.27,0.27-0.54,0.51-0.84,0.73c-1,0.7-2.14,1.06-3.44,1.06c-1.68,0-3.11-0.6-4.31-1.79c-1.16-1.16-1.76-2.6-1.76-4.28c0-1.68,0.6-3.11,1.76-4.3C101.21,101.66,102.65,101.06,104.32,101.06L104.32,101.06z"/><path class="st18" d="M108.6,102.82c-1.16-1.16-2.6-1.76-4.28-1.76c-1.68,0-3.11,0.6-4.31,1.76c-1.16,1.19-1.76,2.63-1.76,4.31c0,1.68,0.6,3.11,1.76,4.28c1.19,1.19,2.63,1.79,4.31,1.79c1.3,0,2.44-0.35,3.44-1.06c0.3-0.22,0.57-0.46,0.84-0.73c1.16-1.16,1.76-2.6,1.76-4.28C110.36,105.45,109.77,104.01,108.6,102.82L108.6,102.82z"/><path d="M106.76,104.28c-0.68-0.68-1.52-1.03-2.52-1.03c-1,0-1.84,0.35-2.52,1.03c-0.68,0.7-1.03,1.54-1.03,2.52c0,1,0.35,1.84,1.03,2.52c0.68,0.7,1.52,1.06,2.52,1.06c1,0,1.84-0.35,2.52-1.06c0.7-0.68,1.06-1.52,1.06-2.52C107.82,105.83,107.46,104.99,106.76,104.28L106.76,104.28z"/><path class="st26" d="M106.81,103.55c-0.51,0-0.95,0.16-1.3,0.51c-0.35,0.35-0.51,0.81-0.51,1.33c0,0.49,0.16,0.92,0.51,1.27c0.35,0.35,0.79,0.51,1.3,0.51c0.51,0,0.92-0.16,1.27-0.51c0.35-0.35,0.54-0.79,0.54-1.27c0-0.51-0.19-0.97-0.54-1.33C107.73,103.72,107.33,103.55,106.81,103.55L106.81,103.55z"/><path class="st25" d="M148.24,107.15c0-1.79,0.62-3.3,1.9-4.58c1.25-1.25,2.76-1.87,4.55-1.87c1.79,0,3.3,0.62,4.58,1.87c1.25,1.27,1.87,2.79,1.87,4.58c0,1.79-0.62,3.3-1.87,4.55c-1.27,1.27-2.79,1.9-4.58,1.9c-1.38,0-2.6-0.38-3.65-1.11c-0.3-0.24-0.6-0.49-0.89-0.79C148.86,110.46,148.24,108.94,148.24,107.15L148.24,107.15z M154.68,101.06c-1.68,0-3.11,0.6-4.28,1.76c-1.17,1.19-1.76,2.63-1.76,4.3c0,1.68,0.59,3.11,1.76,4.28c0.27,0.27,0.54,0.51,0.84,0.73c1,0.7,2.14,1.06,3.44,1.06c1.68,0,3.11-0.6,4.31-1.79c1.16-1.16,1.76-2.6,1.76-4.28c0-1.68-0.59-3.11-1.76-4.3C157.79,101.66,156.36,101.06,154.68,101.06L154.68,101.06z"/><path class="st18" d="M150.4,102.82c1.16-1.16,2.6-1.76,4.28-1.76c1.68,0,3.11,0.6,4.31,1.76c1.16,1.19,1.76,2.63,1.76,4.31c0,1.68-0.59,3.11-1.76,4.28c-1.19,1.19-2.63,1.79-4.31,1.79c-1.3,0-2.44-0.35-3.44-1.06c-0.3-0.22-0.57-0.46-0.84-0.73c-1.17-1.16-1.76-2.6-1.76-4.28C148.64,105.45,149.24,104.01,150.4,102.82L150.4,102.82z"/><path d="M152.24,104.28c0.68-0.68,1.52-1.03,2.52-1.03c1,0,1.84,0.35,2.52,1.03c0.68,0.7,1.03,1.54,1.03,2.52c0,1-0.35,1.84-1.03,2.52c-0.68,0.7-1.52,1.06-2.52,1.06c-1,0-1.84-0.35-2.52-1.06c-0.7-0.68-1.06-1.52-1.06-2.52C151.19,105.83,151.54,104.99,152.24,104.28L152.24,104.28z"/><path class="st26" d="M152.19,103.55c0.51,0,0.95,0.16,1.3,0.51c0.35,0.35,0.51,0.81,0.51,1.33c0,0.49-0.16,0.92-0.51,1.27c-0.35,0.35-0.79,0.51-1.3,0.51c-0.51,0-0.92-0.16-1.27-0.51c-0.35-0.35-0.54-0.79-0.54-1.27c0-0.51,0.19-0.97,0.54-1.33C151.27,103.72,151.67,103.55,152.19,103.55L152.19,103.55z"/><path class="st27" d="M164.54,38.87c-0.3,1.14-0.67,2.28-1.04,3.38c-2.64,7.53-7.23,14.15-13.72,19.81l8.77-0.3c8.2-4.42,11.68-10.78,10.51-19.07l-2.84-17.2C166.21,30.2,165.64,34.69,164.54,38.87L164.54,38.87z"/><path class="st27" d="M178.49,40.78c-0.3-0.54-0.57-1.07-0.87-1.61l-4.99,4.55c0.17,3.45-0.27,6.86-1.34,10.17c-1.44,3.41-3.31,6.06-5.59,7.93c3.98-0.6,7.93,1.61,11.91,6.59C182.74,59.22,183.01,49.98,178.49,40.78L178.49,40.78z"/><path class="st27" d="M183.21,66.71c-1.57,3.21-3.92,6.26-7.06,9.17l-3.25,10.17c6.32,7.16,6.86,17.97,1.64,32.39l1.51,0.77l3.92-11.98C187.49,89.2,188.56,75.68,183.21,66.71L183.21,66.71z"/><path class="st27" d="M93.3,55.13c-3.31-6.26-3.05-13.32,0.8-21.15c-7.06,4.55-12.38,9.8-15.96,15.76c-0.67,6.86-0.4,13.12,0.77,18.77c0.37,1.87,0.87,3.68,1.51,5.45C83.86,64.44,88.18,58.18,93.3,55.13L93.3,55.13z"/><path class="st27" d="M99.15,36.56c-3.78,7.09-3.18,13.08,1.84,17.97l11.04,1.81c-4.45-12.28-0.44-21.48,12.05-27.57C113.67,30.47,105.34,33.08,99.15,36.56L99.15,36.56z"/><path class="st27" d="M76.3,87.23c0.5-1.04,1.07-2.01,1.74-2.91c-1.1-1.94-2.08-3.92-2.91-5.89c-3.98-9.8-4.22-20.31-0.7-31.59c-5.99,8.9-10.17,18.1-12.48,27.64c-0.97,8.4,1.04,15.96,6.09,22.65c0.64,0.8,1.27,1.61,1.97,2.38c3.45,4.42,6.39,9,8.87,13.72c-1.57-3.35-2.74-6.49-3.51-9.44c-5.76-7.83-9.47-16.46-11.11-25.93c2.38,6.39,5.72,12.75,10.11,19.14c-0.07-1.61,0.03-3.15,0.3-4.58c-3.38-8-5.62-17.13-6.76-27.44C69.67,72.4,72.48,79.83,76.3,87.23L76.3,87.23z"/><path class="st28" d="M147.71,64.07l-0.13-0.17c-0.2,0.17-0.4,0.3-0.64,0.47C147.2,64.27,147.47,64.17,147.71,64.07L147.71,64.07z"/><path class="st29" d="M112.1,60.09l-0.87-0.13c0.1,0.03,0.2,0.03,0.33,0.07L112.1,60.09L112.1,60.09z"/><path class="st30" d="M153.73,11.6c-1.34,1.84-2.78,3.61-4.35,5.29c8.67,5.79,11.58,14.12,8.73,24.96c-0.13,0.33-0.27,0.67-0.4,0.97c-2.04,4.62-4.35,8.47-6.96,11.58c1.31-3.98,2.24-7.7,2.81-11.18c1.04-6.46,0.87-12.11-0.57-16.97c-0.5,5.69-1.41,11.44-2.78,17.3c-1.21,5.19-2.74,10.41-4.62,15.69c-1.37,0.97-2.81,1.77-4.28,2.44c-1.87-4.65-1.74-10.04,0.44-16.2l7.36-18.47l-10.24,16.83c-0.23,0.3-0.44,0.6-0.64,0.9c-4.35,6.26-5.62,12.48-3.85,18.74c-1.71,0.17-3.48,0.2-5.32,0.03c-2.78-6.06-2.54-12.01,0.64-17.94c1.44-2.64,3.45-5.25,6.02-7.86c5.89-5.15,10.74-10.64,14.59-16.5c-4.05,4.95-8.87,9.44-14.52,13.49c-5.86,3.15-9.77,6.96-11.71,11.41c-2.07,4.79-1.91,10.34,0.5,16.66c-1.17-0.27-2.34-0.57-3.51-0.94c-8.53-10.47-5.12-20.95,10.31-31.42l5.49-6.83c-2.44,1.87-6.09,3.48-10.88,4.85c-0.64,0.1-1.27,0.2-1.91,0.3c-12.48,6.09-16.5,15.29-12.05,27.57l-11.04-1.81c-5.02-4.89-5.62-10.88-1.84-17.97l3.01-7.16c-2.91,1.44-5.59,2.94-8.06,4.58c-3.85,7.83-4.12,14.89-0.8,21.15c-5.12,3.04-9.44,9.3-12.88,18.84c-0.64-1.77-1.14-3.58-1.51-5.45c-1.17-5.66-1.44-11.91-0.77-18.77v-8.1c-1.31,1.71-2.54,3.45-3.71,5.19c-3.51,11.28-3.28,21.78,0.7,31.59c0.84,1.97,1.81,3.95,2.91,5.89c-0.67,0.9-1.24,1.87-1.74,2.91c-3.81-7.4-6.63-14.82-8.4-22.25c1.14,10.31,3.38,19.44,6.76,27.44c-0.27,1.44-0.37,2.98-0.3,4.58c-4.38-6.39-7.73-12.75-10.11-19.14c1.64,9.47,5.35,18.1,11.11,25.93c0.77,2.94,1.94,6.09,3.51,9.44c0.47,0.87,0.94,1.77,1.37,2.68c0.87,1.84,1.67,3.71,2.44,5.62l4.25-1.51c-7.26-15.79-8.2-26.57-2.84-32.36l-2.51-10.64c5.62-13.25,14.52-19.11,26.67-17.57c0.97,0.1,1.94,0.27,2.98,0.5l0.87,0.13c4.05,2.11,7.96,3.71,11.78,4.79c8.2,2.28,15.89,2.11,23.06-0.5c0.23-0.17,0.44-0.3,0.64-0.47l0.13,0.17c4.85,1.37,9.03,1.57,12.62,0.57c8.2-1.21,13.49,2.54,15.83,11.24c3.15-2.91,5.49-5.96,7.06-9.17c5.35,8.97,4.28,22.49-3.25,40.52l-3.92,11.98l1.24,0.64c2.44-5.79,5.29-11.91,8.5-18.44c4.82-13.02,5.99-23.99,3.55-32.93l-4.48-6.36c1.57-6.59,0.13-13.75-4.32-21.55c-0.5-0.87-1.04-1.74-1.61-2.61l-1.31,1.21c0.3,0.54,0.57,1.07,0.87,1.61c4.52,9.2,4.25,18.44-0.87,27.64c-3.98-4.99-7.93-7.19-11.91-6.59c2.28-1.87,4.15-4.52,5.59-7.93c1.07-3.31,1.51-6.73,1.34-10.17c-0.03-0.77-0.13-1.57-0.23-2.34c-0.7-5.15-2.78-10.44-6.19-15.89l2.84,17.2c1.17,8.3-2.31,14.66-10.51,19.07l-8.77,0.3c6.49-5.66,11.08-12.28,13.72-19.81c0.37-1.1,0.74-2.24,1.04-3.38C163.83,29.77,160.22,20.67,153.73,11.6L153.73,11.6z"/><path class="st27" d="M157.71,42.82c0.13-0.3,0.27-0.64,0.4-0.97c2.84-10.84-0.07-19.17-8.73-24.96c-4.35,4.62-9.6,8.63-15.76,12.05c-0.77,0.5-1.54,1-2.24,1.51c-15.43,10.47-18.84,20.95-10.31,31.42c1.17,0.37,2.34,0.67,3.51,0.94c-2.41-6.32-2.58-11.88-0.5-16.66c1.94-4.45,5.86-8.27,11.71-11.41c5.65-4.05,10.47-8.53,14.52-13.49c-3.85,5.86-8.7,11.34-14.59,16.5c-2.58,2.61-4.58,5.22-6.02,7.86c-3.18,5.92-3.41,11.88-0.64,17.94c1.84,0.17,3.61,0.13,5.32-0.03c-1.77-6.26-0.5-12.48,3.85-18.74c0.2-0.3,0.4-0.6,0.64-0.9l10.24-16.83l-7.36,18.47c-2.18,6.16-2.31,11.54-0.44,16.2c1.47-0.67,2.91-1.47,4.28-2.44c1.87-5.29,3.41-10.51,4.62-15.69c1.37-5.86,2.28-11.61,2.78-17.3c1.44,4.85,1.61,10.51,0.57,16.97c-0.57,3.48-1.51,7.19-2.81,11.18C153.36,51.29,155.67,47.44,157.71,42.82L157.71,42.82z"/><path class="st1" d="M149.88,156.76l1.17-0.7v-2.84l-1.24,2.58c-15.16-1.91-28.81-2.14-40.93-0.7l-1.61-0.54c6.36,7.86,13.39,12.41,21.12,13.69c0.1,0,0.23,0,0.33,0.03C135.16,168.67,142.22,164.83,149.88,156.76L149.88,156.76z M144.69,155.99c1.47,0.13,2.94,0.3,4.42,0.5c-3.78,3.92-7.53,6.79-11.31,8.7c-2.71,1.34-5.39,2.14-8.1,2.44c-2.84-0.23-5.65-1.07-8.43-2.48c-3.95-1.97-7.86-5.12-11.78-9.37c1.71-0.17,3.41-0.3,5.12-0.44C124.48,154.72,134.52,154.95,144.69,155.99L144.69,155.99z"/><path class="st24" d="M143.42,157.23c0.5-0.37,0.9-0.8,1.27-1.24c-10.17-1.04-20.21-1.27-30.08-0.64c0.8,1.31,2.11,2.31,3.95,3.05c-0.5-1.54,0.2-2.31,2.07-2.28L143.42,157.23L143.42,157.23z"/><path class="st9" d="M120.63,156.13c-1.87-0.03-2.58,0.74-2.07,2.28c2.78,1.1,6.69,1.57,11.78,1.41c6.12,0.27,10.47-0.6,13.08-2.58L120.63,156.13L120.63,156.13z"/><path d="M144.69,155.99c-0.37,0.43-0.77,0.87-1.27,1.24c-2.61,1.97-6.96,2.84-13.08,2.58c-5.09,0.17-9-0.3-11.78-1.41c-1.84-0.74-3.15-1.74-3.95-3.05c-1.71,0.13-3.41,0.27-5.12,0.44c3.92,4.25,7.83,7.39,11.78,9.37c0.47-0.13,0.94-0.23,1.41-0.33c4.58-1.07,8.6-1.27,11.98-0.57c1.1,0.23,2.18,0.54,3.15,0.94c3.78-1.91,7.53-4.79,11.31-8.7C147.64,156.29,146.17,156.13,144.69,155.99L144.69,155.99z"/><path class="st31" d="M137.8,165.19c-0.97-0.4-2.04-0.7-3.14-0.94c-1.21,2.44-5.19,2.61-11.98,0.57c-0.47,0.1-0.94,0.2-1.41,0.33c2.78,1.41,5.59,2.24,8.43,2.48C132.41,167.34,135.09,166.53,137.8,165.19L137.8,165.19z"/><path class="st32" d="M122.68,164.83c6.79,2.04,10.78,1.87,11.98-0.57C131.28,163.55,127.26,163.75,122.68,164.83L122.68,164.83z"/></g></svg>