<svg version="1.1" xmlns="http://www.w3.org/2000/svg" x="0px" y="0px" width="330" height="520" viewBox="0 0 330 520"><style type="text/css">.st0{fill:#EECFB2;}.st1{fill:#5B2113;}.st2{fill:#E3B798;}.st3{fill:#7A791F;}.st4{fill:#DDD3CC;}.st5{fill:#5C2012;}.st6{fill:#C8866A;}.st7{fill:#D89C7A;}.st8{fill:#5679AD;}.st9{fill:#CCCC33;}.st10{fill:#C94727;}.st11{fill:#9C371F;}.st12{fill:#B5B52D;}.st13{fill:#333333;}.st14{fill:#CAA202;}.st15{fill:#FFCC00;}.st16{fill:#969525;}.st17{fill:#F3F0ED;}.st18{fill:#3C5477;}.st19{fill:#4D6B99;}.st20{fill:#6585B4;}.st21{fill:#794224;}.st22{fill:#CF8B5F;}.st23{fill:#BB6F4A;}.st24{fill:#F8F3EF;}.st25{fill:#E7E0DA;}.st26{fill:#651F01;}.st27{fill:#993300;}.st28{fill:#FFFFFF;}.st29{opacity:0.4;fill:#FFFFFF;enable-background:new ;}.st30{fill:#702918;}.st31{fill:#A33A21;}</style><g><path class="st0" d="M106.3,145.2c-2.9-8.5-7-14.3-12.4-17.3c-0.3,0.2-0.6,0.3-0.9,0.5c-4.1,5.5-3.5,14.1,1.6,25.8c0.6,1.5,1.3,2.8,2,4c2,3.6,4.1,6,6.4,7.1C109.9,165.1,111,158.3,106.3,145.2L106.3,145.2z"/><path class="st1" d="M180.3,196c-0.4,4.3-0.6,8.6-0.7,12.9c9.9,1.1,19.8,2.8,29.6,5l11.7-12.6l3.6-57.8c-0.7,3.3-1.9,6.8-3.6,10.8c-4.9,11.1-10.5,14.4-16.6,10c-0.5-0.4-1.1-0.8-1.6-1.3c-3.3,13-9,22.7-17,28.8C183.9,193.3,182.1,194.7,180.3,196L180.3,196z"/><path class="st0" d="M210.4,132.6c-2.4,9.5-4.3,18.7-5.6,27.8c7.4,1.9,12.4-1.4,14.8-9.8c2.7-9.5,2.6-17.2-0.6-23.3C216.2,127,213.3,128.8,210.4,132.6L210.4,132.6z"/><path class="st2" d="M222.5,128.5c-0.3-0.2-0.6-0.4-0.9-0.5c-0.8-0.4-1.7-0.7-2.6-0.8c3.2,6.1,3.4,13.8,0.6,23.3c-2.5,8.5-7.4,11.8-14.8,9.8c-0.2,1.3-0.4,2.6-0.5,3.9c6.1,4.5,11.7,1.1,16.6-10c1.7-3.9,2.9-7.5,3.6-10.8C225.9,137.2,225.2,132.2,222.5,128.5L222.5,128.5z"/><polygon class="st3" points="150.2,452.9 148.3,453.9 151.1,465.1 153.2,464.1 "/><path class="st3" d="M125.3,418.8l1.4,4.8l3.3,0.6l-1.7-7.6C127.2,417.4,126.2,418.1,125.3,418.8L125.3,418.8z"/><path class="st4" d="M140.8,417.8l-0.4-1.4c-2.7,0.5-6.3,0.4-10.8-0.5c-0.5,0.3-1,0.5-1.4,0.8l1.7,7.6l1.6,0.3L140.8,417.8L140.8,417.8z"/><polygon class="st4" points="151.1,465.1 148.3,453.9 137.7,459 140.3,470.4 "/><path class="st5" d="M301.4,407.2c0.4,1,0.8,1.9,1.2,2.8l3-2C304.2,407.7,302.8,407.4,301.4,407.2L301.4,407.2z"/><path class="st1" d="M104.5,112.8l-7.9,14.5c2.8-0.1,5.6,1.6,8.4,5.3c1,1.3,2.1,2.9,3.1,4.8C106.2,128.4,105,120.2,104.5,112.8L104.5,112.8z"/><path class="st1" d="M111.4,164.1c-2.9,2.2-5.8,2.7-8.5,1.3c-2.2-1.1-4.4-3.5-6.4-7.1l-4.8,32.3l11.5,20c11.1-1.7,22.2-2.8,33.1-3.3c-0.1-1-0.2-2-0.3-3.1c-0.2-2.6-0.5-5.4-0.9-8.2c-1.9-1.4-3.8-2.8-5.6-4.3c-8-6.2-13.7-15.8-17-28.8C112.3,163.4,111.9,163.8,111.4,164.1L111.4,164.1z"/><path class="st6" d="M204.8,160.4c1.3-9.1,3.1-18.3,5.6-27.8c-1,1.3-2.1,2.9-3.1,4.7c-0.5,2.1-1,4.3-1.5,6.6l-3,19.2c0.5,0.5,1,0.9,1.6,1.3C204.5,163,204.6,161.7,204.8,160.4L204.8,160.4z"/><path class="st2" d="M161.7,55.6h-7.5c-35.6,0.5-52.1,19.5-49.7,57.2c0.5,7.4,1.7,15.6,3.7,24.5c0.2,0.8,0.4,1.7,0.6,2.5l7.8-28.2c7.9-4.9,13.6-11.7,17.2-20.6c11.2,17.2,23.6,27.4,37.3,30.5l11.1,1.4l-18.9-18.1l39.8,24.6c-0.2,1.7-0.4,3.5-0.6,5.2c-1.2,10.5-3.4,20.5-6.4,30c-13.1,27.4-32.1,38.7-57,34.1c1.6,1.1,3.3,2.1,5,3.1c9.3,6,18.4,6,27.3,0c3-1.8,6-3.8,8.9-5.9c1.8-1.3,3.6-2.7,5.4-4.2c8-6.2,13.7-15.8,17-28.8l3-19.2c0.6-2.2,1.1-4.4,1.5-6.6c0.4-1.6,0.7-3.1,1-4.7c1.6-8.1,2.5-15.5,2.8-22.3C212.7,74.4,196.2,56.2,161.7,55.6L161.7,55.6z"/><path class="st0" d="M133.7,91c-3.6,8.8-9.3,15.7-17.2,20.6l-7.8,28.2c0.3,1.3,0.6,2.7,1,4.1l3,19.2c3.3,13,9,22.7,17,28.8c1.8,1.5,3.7,2.9,5.6,4.3c1.2,0.9,2.4,1.7,3.7,2.6c24.8,4.6,43.8-6.8,57-34.1c3-9.6,5.1-19.6,6.4-30c0.2-1.8,0.4-3.5,0.6-5.2l-39.8-24.6l18.9,18.1l-11.1-1.4C157.3,118.4,144.9,108.2,133.7,91L133.7,91z"/><path class="st6" d="M108.2,137.3c-1.1-1.8-2.1-3.5-3.1-4.8c1,3.7,1.9,7.3,2.7,10.8c1.8,7.5,3,14.5,3.6,20.8c0.4-0.3,0.9-0.7,1.3-1.1l-3-19.2c-0.3-1.4-0.7-2.7-1-4.1C108.6,138.9,108.3,138.1,108.2,137.3L108.2,137.3z"/><path class="st2" d="M107.8,143.3c-0.8-3.5-1.7-7.1-2.7-10.8c-2.8-3.6-5.6-5.4-8.4-5.3c-0.9,0-1.8,0.3-2.7,0.7c5.4,3,9.5,8.7,12.4,17.3c4.7,13.1,3.6,19.8-3.4,20.2c2.7,1.3,5.5,0.9,8.5-1.3C110.8,157.8,109.6,150.8,107.8,143.3L107.8,143.3z"/><path class="st1" d="M208.2,132.6c-0.3,1.5-0.6,3.1-1,4.7c1-1.8,2.1-3.4,3.1-4.7c2.9-3.8,5.8-5.5,8.6-5.3c0.9,0.1,1.7,0.3,2.6,0.8l-10.5-17.7C210.8,117.1,209.8,124.5,208.2,132.6L208.2,132.6z"/><path class="st7" d="M133.1,231.7l0.5,1.9l1.8,7.4c0.8-3.6,1.4-7.9,1.6-12.8C135.7,229.4,134.4,230.5,133.1,231.7L133.1,231.7z"/><path class="st0" d="M137,215.9L137,215.9c0.2,4.5,0.1,8.6,0,12.4c-0.2,4.9-0.8,9.1-1.6,12.8l-1.8-7.4c-12.5,15-19.7,33.2-21.8,54.8c14.3,12.3,30.9,12.3,49.9,0v-41.8l9.1-7.5l-2.1-24.7c-1.3-0.3-2.8-0.5-4.3-0.7c-5.9,0.4-13.4-1.7-22.7-6.4c-1.7-0.9-3.6-1.9-5.4-2.9c0.1,1,0.2,2,0.3,3.1C136.7,210.4,136.9,213.2,137,215.9L137,215.9z"/><path class="st7" d="M136.2,204.3c1.8,1,3.6,2,5.4,2.9c9.2,4.7,16.8,6.8,22.7,6.4c1.5,0.2,3,0.4,4.3,0.7c5.5,1.1,9.2,2.9,11.3,5.5c-0.1-2-0.2-4.1-0.2-6.2c0-1.5-0.1-3.1,0-4.7c0-4.3,0.3-8.6,0.7-12.9c-2.9,2.1-5.9,4.1-8.9,5.9c-8.9,6-18,6-27.3,0c-1.7-1-3.4-2-5-3.1c-1.3-0.8-2.5-1.7-3.7-2.6C135.7,199,136,201.7,136.2,204.3L136.2,204.3z"/><path class="st8" d="M73.1,455l2.1,4.6l40-0.4c-4.4-1.3-9.1-3.2-14.2-5.7C94.8,454.7,85.5,455.2,73.1,455L73.1,455z"/><path class="st5" d="M261.9,414.5c3.1-2.3,6.5-4.5,10.2-6.5c-5.9,1.2-12,3-18.2,5.4l4.9,3.6C259.7,416.1,260.8,415.3,261.9,414.5L261.9,414.5z"/><path class="st0" d="M261.9,414.5c-1.1,0.8-2.1,1.6-3.1,2.5c-1.5,1.2-2.9,2.6-4.3,3.9c-0.5,0.5-0.9,0.9-1.4,1.4c-2.3,2.5-5.3,4.6-8.9,6.4c-7.8,3.9-18.8,6.2-32.8,7.1l-3.1-4.5l-0.8,3.8c1.2,2.6,1.7,5.3,1.2,7.9c-0.4,3.4-0.1,6,0.9,7.8l45.3-2.4c24.3-5.8,38.2-17.1,41.5-33.9C285.5,412.4,274,412.4,261.9,414.5L261.9,414.5z"/><path class="st7" d="M174.5,443.2c0.3,0.5,0.7,0.9,1.1,1.4l14.7,0.9l-2.7-1.2L174.5,443.2L174.5,443.2z"/><path class="st2" d="M187.5,444.3l2.7,1.2l-2.6-3.5l-14.4-1.4c0.2,0.8,0.6,1.7,1.2,2.5L187.5,444.3L187.5,444.3z"/><path class="st7" d="M192.1,433.6l-1.7-1.1l-15.8-1.3c0.5,0.6,1,1.2,1.7,1.8L192.1,433.6L192.1,433.6z"/><path class="st7" d="M174.8,417.8c0.5,0.9,1.2,1.8,2.1,2.7l16.3,0.8l-2.5-1.6L174.8,417.8L174.8,417.8z"/><path class="st2" d="M174,414.9c0,1,0.3,1.9,0.8,2.9l15.9,1.9l2.5,1.6l-2.2-4.1L174,414.9L174,414.9z"/><path class="st2" d="M192.1,433.6l-1.1-3.9l-18.3-1.9c0.3,1.1,0.9,2.2,1.8,3.4l15.8,1.3L192.1,433.6L192.1,433.6z"/><path class="st9" d="M125.3,418.8c-1.5,1.2-2.6,2.5-3.5,3.9l4.9,1L125.3,418.8L125.3,418.8z"/><path class="st2" d="M153.9,439.7l-11.6,10l-3.3,4.5l13.7-8.6C154.2,444,154.6,442.1,153.9,439.7L153.9,439.7z"/><path class="st2" d="M151.4,435.3c1.6-1.6,1.8-3.7,0.7-6.1l-11.4,10.1l-2.6,6.1L151.4,435.3L151.4,435.3z"/><path class="st2" d="M146.7,409.1l-2.4-0.2c-1.8,3.5-7.4,4.8-16.6,4l-10.5,7.7l4.6,2.1c0.9-1.4,2-2.6,3.5-3.9c0.9-0.8,1.9-1.5,3-2.2c0.4-0.3,0.9-0.6,1.4-0.8c4.5,0.9,8,1,10.8,0.5c0,0,0,0,0,0c1.4-0.3,2.6-0.8,3.6-1.5C145.7,413.6,146.6,411.7,146.7,409.1L146.7,409.1z"/><path class="st2" d="M148.7,424.5c0.8-1.6,0.7-3.3-0.4-5.2l-11.6,11.6l-2.1,5.8L148.7,424.5L148.7,424.5z"/><path class="st10" d="M137,216L137,216c-14.4,7.3-27.1,18.2-38.3,32.4c-6.9,8.8-13.2,19-18.8,30.4l19.9-16.9C107.2,241.5,119.6,226.2,137,216L137,216z"/><path class="st5" d="M189.1,217.4c-1.9-1.9-5.1-3.1-9.4-3.8c0,2.1,0.1,4.2,0.2,6.2c0.4,6.8,1.3,13.6,2.6,20.2l3.6-3.8C192,227.5,193,221.2,189.1,217.4L189.1,217.4z"/><path class="st10" d="M189.1,217.4c3.9,3.8,2.9,10.1-3,18.8c9.5,6.3,17.7,15.5,24.5,27.7c1.8-8.3,2.2-16.7,1.3-25.1c-0.2-1.6-0.4-3.3-0.7-4.9L189.1,217.4L189.1,217.4z"/><path class="st11" d="M240.5,365.8l-3.2-54.1c-5.5,26.6-6.3,64.8-2.5,114.5c-7.9,2.8-15.9,4-23.9,3.3l-4.4-9.3c-0.3,0.6-0.7,1.2-1.1,1.8c1.1,2.4,1.5,4.8,1.1,7.1l1.6,2.3l3.1,4.5c14-0.8,24.9-3.2,32.8-7.1L240.5,365.8L240.5,365.8z"/><path class="st0" d="M181.2,408.9l-2-0.1l-1.5-0.1c-2.4,2.1-3.6,4.2-3.6,6.2l17,2.3l2.2,4.1l-16.3-0.8c-3.6,2.2-5,4.6-4.3,7.4l18.3,1.9l1.1,3.9l-15.9-0.6c-2.6,2.5-3.6,5.1-3,7.6l14.4,1.4l2.6,3.5l-14.7-0.9c-2.8,1.6-3.9,3.4-2.9,5.4l24.5,0.8c2.5-1.3,3.1-2.8,2-4.4c2.8-4,2.8-8.1,0-12.4c3.2-3.6,3.9-7.5,2.1-11.5c3.8-4,4.3-8,1.5-12l-2.7-0.2l-13.5-0.9L181.2,408.9L181.2,408.9z"/><path class="st2" d="M172.6,449.9c0.4,0.9,1.2,1.9,2.4,2.9l6.8,0.7l13.6,1.4l6.7,0.7c3.1-4.3,3.4-7.4,0.9-9.4c3.3-2.9,3.6-7,1.2-12.2c1.2-1.7,2-3.4,2.3-5.1c0.4-2.3,0-4.7-1.1-7.1c0.4-0.6,0.8-1.2,1.1-1.8c1.3-2.7,1.3-5.5-0.1-8.2c-0.7-0.8-1.9-1.3-3.6-1.5h-0.1c2.8,4,2.3,8-1.5,12c1.7,4,1,7.8-2.1,11.5c2.8,4.3,2.8,8.4,0,12.4c1.1,1.6,0.5,3.1-2,4.4L172.6,449.9L172.6,449.9z"/><path class="st2" d="M133.6,233.6l-0.5-1.9C119,245,109.9,265,105.9,291.5c14.9,22.4,37.9,22,69-1.2c-0.9-12.9-2-25.8-3.1-38.8l10.8-11.5c-1.3-6.7-2.2-13.4-2.6-20.2c-2.1-2.5-5.8-4.3-11.3-5.5l2.1,24.7l-9.1,7.5v41.8c-19,12.3-35.6,12.3-49.9,0C113.8,266.9,121.1,248.6,133.6,233.6L133.6,233.6z"/><path class="st5" d="M133.1,231.7c1.2-1.2,2.6-2.3,3.9-3.4c0.2-3.8,0.2-7.9,0-12.3c-17.5,10.2-29.9,25.5-37.2,45.9l6,29.7C109.9,265,119,245,133.1,231.7L133.1,231.7z"/><path class="st12" d="M73.1,455c-0.7,0-1.5,0-2.2,0l3.4,12l14.4,1.1l48.8,3.6l-2-11.6l-1.2,0.6c-5.3,1.2-11.7,0.7-19-1.5l-40,0.4L73.1,455L73.1,455z"/><polygon class="st3" points="137.5,471.7 140.3,470.4 137.7,459 135.5,460.2 "/><path class="st11" d="M98.7,248.4c-3.9,0.1-7.5,0.4-10.8,1.1l-13.5,35.3l18.3-5.5l2,8.9H55.7l-1.9,4.1l52.1-0.8l-6-29.7l-19.9,16.9C85.6,267.3,91.8,257.2,98.7,248.4L98.7,248.4z"/><path class="st11" d="M182.5,240.1l-10.8,11.5l14.3-6c6.5,4.5,12.7,10.6,18.4,18.1l-19.1,88.9l3.1,7.2l-7.2,49.1l5.4,0.4l0.8-5l8.4-50.7c-1.6-0.6-3.3-1.3-4.9-2.1l1.3-5.6l25.3-106.3l-5.6-0.6c0.9,8.3,0.5,16.7-1.3,25.1c-6.8-12.2-15-21.4-24.5-27.7L182.5,240.1L182.5,240.1z"/><path class="st10" d="M186,245.6l-14.3,6c1.2,13,2.2,25.9,3.1,38.8c2.8,39.6,4.2,79.1,4.3,118.4l2,0.1l7.2-49.1l-3.1-7.2l19.1-88.9C198.7,256.1,192.6,250.1,186,245.6L186,245.6z"/><path class="st13" d="M218.3,235.9l-0.8,3.6l-25.3,106.3c8.1,3,16.1,4.1,24.2,3.4c10.6-41.1,17.8-79.3,21.4-114.7C231.4,233.2,225,233.7,218.3,235.9L218.3,235.9z"/><path d="M247.6,238.1c-3.3-1.7-6.5-2.9-9.8-3.6c-3.6,35.4-10.8,73.6-21.4,114.7c-8,0.7-16.1-0.4-24.2-3.4l-1.3,5.6c1.6,0.8,3.2,1.5,4.9,2.1c4,1.4,8,2.3,12,2.7l-11,48.9l-9.4-0.9l-0.8,5l13.5,0.9l13.6-53.8c3.7-0.1,7.5-0.7,11.3-1.7l21.6-111.2L247.6,238.1L247.6,238.1z"/><path class="st10" d="M66.9,264.4l-11.2,23.8h39.1l-2-8.9l-18.3,5.5l13.5-35.3C77.7,251.6,70.7,256.6,66.9,264.4L66.9,264.4z"/><path class="st11" d="M36.6,350.8l-2.6,8.9L44.5,389l-22.1,10.3l-3.9,13.4c7.6-11.4,19.3-16.8,35-16.4L36.6,350.8L36.6,350.8z"/><polygon class="st10" points="44.5,389 34,359.8 22.4,399.3 "/><path class="st10" d="M52.6,411.4l-2.1-5.3c-11.8,3.3-20,9.8-24.9,19.5c0.9-12.3,10.7-20.7,29.5-25.3l-1.5-4c-15.8-0.4-27.4,5-35,16.4c-1.6,2.3-3,5-4.2,7.8c2,15.5,8.8,28.2,20.4,38.1c-4.9-10.5-4.9-19.6,0-27.2L52.6,411.4L52.6,411.4z"/><path class="st2" d="M57.6,420.4c-1.4-0.7-2.7-1.3-3.8-1.9c-11.1,3.6-16.1,13.1-15,28.5c0.3,2.5,0.7,4.7,1.4,6.7c9,0.5,16.5,0.9,22.3,1.1c0.9,0,1.7,0.1,2.6,0.1c2.1,0.1,4,0.1,5.6,0.2c0,0,0.1,0,0.1,0c0.8,0,1.5,0,2.2,0c12.4,0.2,21.6-0.3,27.8-1.5c5.1,2.5,9.8,4.4,14.2,5.7c7.3,2.2,13.7,2.7,19,1.5l1.2-0.6l2.3-1.1l10.5-5.2l2-1l2.3-1.2c1-0.6,1.4-1.5,1.2-2.8l-16.9,7.4c-11,2.7-22.2,0.2-33.4-7.5l-56.6-3C46.9,436,50.4,427.5,57.6,420.4L57.6,420.4z"/><path class="st11" d="M70.8,455c-1.6,0-3.5-0.1-5.6-0.2l3,14.6l9.6,4.2l-11.1,46h13.7l8.2-51.6L74.2,467l-3.4-12C70.8,455,70.8,455,70.8,455L70.8,455z"/><path class="st5" d="M62.6,454.7c-5.9-0.2-13.3-0.6-22.3-1.1c2.4,7.3,7.3,11.4,14.8,12.5L62.6,454.7L62.6,454.7z"/><path class="st10" d="M77.8,473.7l-9.6-4.2l-3-14.6l-9.2,14c-0.4,0-0.8-0.1-1.3-0.1l-7.1,51h19.2L77.8,473.7L77.8,473.7z"/><path class="st10" d="M240.5,365.8l5.5,19.7c12.4-10,25.4-16.6,39-19.9c-5.4-62.2-18.3-96.5-38.6-102.9l-21.5,92.1c-3.8,1-7.6,1.5-11.3,1.7L200,410.2l2.7,0.2h0.1c1.7,0.2,2.9,0.7,3.6,1.5c1.4,2.7,1.5,5.5,0.1,8.2l4.4,9.3c7.9,0.6,15.9-0.5,23.9-3.3c-3.8-49.7-3-87.9,2.5-114.5L240.5,365.8L240.5,365.8z"/><path class="st11" d="M246,385.4l1.1,3.8c17.9-9.4,34.7-14,50.6-13.7l-9.9-73.1c-8.1-35.2-21.9-54.8-41.3-58.8l-21.6,111.2l21.5-92.1c20.3,6.4,33.2,40.7,38.6,102.9C271.4,368.8,258.4,375.4,246,385.4L246,385.4z"/><path class="st10" d="M247.1,389.2c-1.1,0.6-2.1,1.1-3.2,1.7l3.9,12.5l4.5-2.7l-3.3,6.6l-3,6.1c5.7-4.1,14.3-7.6,25.8-10.5l31.6-1.8l-2.8-7.4l-39.2,1.3l38.7-9l1.7-10.3c-1.3-0.1-2.7-0.2-4-0.2C281.9,375.2,265,379.8,247.1,389.2L247.1,389.2z"/><path class="st11" d="M301.7,375.7L300,386l-38.7,9l39.2-1.3l2.8,7.4l-31.6,1.8c-11.5,2.9-20.1,6.4-25.8,10.5l-0.3,0.5l8.7,6.9c1.3-1.4,2.8-2.7,4.3-3.9l-4.9-3.6c6.3-2.4,12.3-4.2,18.2-5.4c10.3-2.1,20-2.3,29.2-0.7c1.4,0.2,2.8,0.5,4.2,0.8l-3,2c1,2.7,1.6,5.2,1.9,7.7l7.1-9.2l-7.3-24v-8.6C303.4,375.8,302.6,375.8,301.7,375.7L301.7,375.7z"/><path class="st14" d="M119.3,315.3c14.9,4.8,29.8,5.1,44.6,0.9l3.6,92.2c-6.6,27-5.7,43.8,2.7,50.2l5.4,47.6l-87.8,7.4l6.7-35.5l43-6.4l-48.8-3.6l-8.2,51.6h109l-0.7-6.4l-6.2-53.9l-0.7-5.8l-6.8-0.7c-1.2-1-2-2-2.4-2.9c-0.9-2,0.1-3.8,2.9-5.4c-0.4-0.5-0.8-0.9-1.1-1.4c-0.6-0.8-1-1.7-1.2-2.5c-0.6-2.6,0.4-5.1,3-7.6c-0.6-0.6-1.2-1.2-1.7-1.8c-0.9-1.2-1.5-2.3-1.8-3.4c-0.7-2.8,0.7-5.2,4.3-7.4c-0.9-0.9-1.6-1.8-2.1-2.7c-0.5-1-0.8-1.9-0.8-2.9c0-2.1,1.2-4.2,3.6-6.2l1.5,0.1c-0.1-39.3-1.5-78.8-4.3-118.4c-31.1,23.2-54.1,23.6-69,1.2l29.7,106.9L119.3,315.3L119.3,315.3z"/><path class="st15" d="M163.9,316.2c-14.9,4.2-29.8,3.9-44.6-0.9l16.2,83.2l2.8,9.8l6,0.6l2.4,0.2c-0.1,2.5-1,4.4-2.7,5.7c2,1.6,3.4,3.1,4.2,4.5c1.1,1.9,1.2,3.6,0.4,5.2c1.7,1.7,2.8,3.3,3.5,4.7c1.1,2.4,0.9,4.4-0.7,6.1c1.2,1.6,2,3.1,2.4,4.5c0.7,2.3,0.3,4.3-1.2,5.9c0.6,1.3,1,2.4,1.1,3.3c0.2,1.3-0.2,2.2-1.2,2.8l-2.3,1.2l3,11.2l-2.1,1l-10.9,5.3l-2.8,1.3l-43,6.4l-6.7,35.5l87.8-7.4l-5.4-47.6c-8.4-6.5-9.3-23.2-2.7-50.2L163.9,316.2L163.9,316.2z"/><path d="M189.1,458.4l4.1-0.7l65.6,40.1l2.9,9.1l4.8,3.2c1.9-5.9-0.5-12.2-7.3-19l-3.7-2.1l-8.1-4.6l-35.1-19.9l-6.8-3.8l-3.8-2.1l-6.4-3.6l-13.6-1.4L189.1,458.4L189.1,458.4z"/><polygon class="st13" points="193.2,457.7 189.1,458.4 261.8,507 258.8,497.9 "/><polygon class="st11" points="189.1,458.4 181.9,453.6 182.5,459.4 245.4,505.1 249.7,513.6 188.7,513.3 189.4,519.7 268.4,519.7 261.8,507 "/><polygon class="st10" points="182.5,459.4 188.7,513.3 249.7,513.6 245.4,505.1 "/><path class="st2" d="M302.6,410c-0.4-0.9-0.8-1.9-1.2-2.8c-9.2-1.6-19-1.3-29.2,0.7c-3.7,2-7.1,4.2-10.2,6.5c12.2-2.1,23.7-2.1,34.4,0c-3.3,16.9-17.2,28.2-41.5,33.9l-45.3,2.4c-1-1.8-1.2-4.4-0.9-7.8c-0.3,1.6-0.9,3.2-1.7,4.8c1.4,3.4-0.3,6.9-5.1,10.8l3.8,2.1c0.7-0.3,1.4-0.6,2.2-1c13.9-0.5,26.6-1.8,38.1-3.9c19.9-3.6,36-9.7,48.4-18.2c7.6-5.3,11-12,10.2-20C304.2,415.3,303.6,412.7,302.6,410L302.6,410z"/><polygon class="st11" points="247.8,403.5 249,407.4 252.3,400.8 "/><path class="st7" d="M206.6,429c-0.3,1.7-1.1,3.5-2.3,5.1c2.4,5.2,2,9.2-1.2,12.2c2.5,2,2.2,5.1-0.9,9.4l-6.7-0.7l6.4,3.6c4.8-3.8,6.5-7.4,5.1-10.8c0.9-1.6,1.4-3.2,1.7-4.8c0.4-2.6,0-5.3-1.2-7.9l0.8-3.8L206.6,429L206.6,429z"/><path class="st11" d="M241.5,464.5l5.9,19.9l8.1,4.6l-9.7-33.2c-11.5,2.1-24.2,3.4-38.1,3.9c-0.7,0.4-1.5,0.7-2.2,1l6.8,3.8L241.5,464.5L241.5,464.5z"/><polygon class="st10" points="247.4,484.4 241.5,464.5 212.4,464.5 "/><path class="st13" d="M187.4,404.2l9.4,0.9l11-48.9c-4.1-0.4-8.1-1.3-12-2.7L187.4,404.2L187.4,404.2z"/><path class="st9" d="M27.1,302.1l9.3,33.7c46.1,0.5,62.1-10.8,48-34.1L27.1,302.1L27.1,302.1z"/><polygon class="st16" points="53.8,292.3 39.2,292.6 27.1,302.1 84.4,301.8 91.4,301.7 94,299.9 32.8,300.3 41.7,293.9 103.4,293.3 105.9,291.5 "/><polygon class="st17" points="41.7,293.9 32.8,300.3 94,299.9 94.4,301.1 103.7,294.3 103.4,293.3 "/><polygon class="st3" points="105.9,291.5 103.4,293.3 103.7,294.3 135.6,408 138.3,408.3 135.5,398.5 "/><path class="st4" d="M103.7,294.3l-9.3,6.8l31.3,107.3c2.2-0.9,4.5-1.1,7.1-0.7l2.7,0.3L103.7,294.3L103.7,294.3z"/><path class="st3" d="M94.4,301.1l-0.4-1.2l-2.6,1.8l31.3,108.2c1-0.5,2-0.9,3-1.4L94.4,301.1L94.4,301.1z"/><polygon class="st17" points="81,342.3 81.3,343.4 88.1,337.7 88.1,337.6 45.9,340.2 39.1,344.3 "/><path class="st12" d="M36.4,335.8l2.1,7.7l6.9-4.5l45-2.9l24.2,77.6c0.4-0.2,0.9-0.5,1.4-0.7c2.2-1,4.5-2,6.8-3.1L91.4,301.7l-7,0C98.5,325,82.5,336.4,36.4,335.8L36.4,335.8z"/><path class="st18" d="M90.4,336.1l-2.3,1.5l0,0.1l24.7,77c0.6-0.4,1.2-0.7,1.8-1L90.4,336.1L90.4,336.1z"/><path class="st4" d="M105.6,421.8l3.6-4.5c1.1-1,2.3-1.9,3.6-2.6l-24.7-77l-6.8,5.7L105.6,421.8L105.6,421.8z"/><path class="st0" d="M63.4,422.7c-0.6-0.2-1.2-0.4-1.7-0.6c-1.5-0.6-2.8-1.1-4.1-1.7c-7.2,7.1-10.8,15.6-10.7,25.5l56.6,3c11.3,7.7,22.5,10.2,33.4,7.5l16.9-7.4c-0.1-0.9-0.5-2-1.1-3.3l-13.7,8.6l3.3-4.5l11.6-10c-0.4-1.4-1.2-2.8-2.4-4.5l-13.3,10.1l2.6-6.1l11.4-10.1c-0.7-1.4-1.8-3-3.5-4.7l-14.1,12.2l2.1-5.8l11.6-11.6c-0.8-1.4-2.2-2.9-4.2-4.5c-0.9,0.7-2.1,1.2-3.6,1.5l0.4,1.4l-0.1,0.1l-9.3,6.8l-1.6-0.3l-3.3-0.6l-4.9-1l-4.6-2.1l10.5-7.7c9.2,0.8,14.8-0.5,16.6-4l-6-0.6l-2.7-0.3l-2.7-0.3c-2.5-0.4-4.9-0.2-7.1,0.7c-1,0.5-2,1-3,1.4c-2.3,1.1-4.6,2.1-6.8,3.1c-0.5,0.2-0.9,0.4-1.4,0.7c-0.6,0.3-1.2,0.6-1.8,1c-1.2,0.8-2.4,1.6-3.6,2.6l-3.6,4.5l-1.2,1.4l-6.6,8c-6.3-0.8-13.9-2.4-23.1-5C70.4,425,66.6,423.9,63.4,422.7L63.4,422.7z"/><path class="st11" d="M50.5,406.2l2.1,5.3l-17.9,20c-4.9,7.6-4.9,16.7,0,27.2c0.3,0.2,0.5,0.4,0.8,0.7c5.7,5.4,12.1,8.5,19.2,9.4c0.4,0,0.8,0.1,1.3,0.1l9.2-14c-0.8,0-1.7-0.1-2.6-0.1l-7.5,11.3c-7.5-1-12.5-5.2-14.8-12.5c-0.7-2-1.1-4.2-1.4-6.7c-1-15.4,4-24.9,15-28.5c1.8-0.6,4.4-1,7.5-1.3l-6.3-16.8c-18.7,4.6-28.5,13-29.5,25.3C30.4,415.9,38.7,409.5,50.5,406.2L50.5,406.2z"/><polygon class="st19" points="68.1,344.2 79.4,343.4 81,342.3 39.1,344.3 45.9,340.2 88.1,337.6 90.4,336.1 45.4,339 38.5,343.5 34.8,346 "/><path class="st8" d="M79.4,343.4l-11.3,0.8c28.7,58,26.7,83.2-5.7,75.7l1,2.8c3.2,1.2,7,2.3,11.3,3.6c9.1,2.6,16.8,4.3,23.1,5l6.6-8L79.4,343.4L79.4,343.4z"/><polygon class="st18" points="81.3,343.4 81,342.3 79.4,343.4 104.4,423.2 105.6,421.8 "/><path class="st20" d="M34.8,346l1.8,4.9l17,45.5l1.5,4l6.3,16.8l1,2.8c32.4,7.5,34.3-17.7,5.7-75.7L34.8,346L34.8,346z"/><path class="st5" d="M63.4,422.7l-1-2.8l-1-2.8c-3.1,0.3-5.6,0.7-7.5,1.3c1,0.6,2.3,1.3,3.8,1.9c1.2,0.5,2.6,1.1,4.1,1.7C62.2,422.2,62.8,422.4,63.4,422.7L63.4,422.7z"/><path class="st2" d="M164.8,154.3c-3.8-9.7-8-9.7-12.6,0c-0.4,0.9-0.8,1.8-1.2,2.8c-1.6,1.5-2.6,2.9-2.8,4.3c1.3-1.2,3-1.4,5.1-0.7c0.9,0.3,1.7,0.5,2.4,0.6c1.9,0.3,3.8,0.3,5.7-0.1c0.7-0.1,1.5-0.3,2.2-0.5c2.2-0.8,3.9-0.5,5.2,0.9c-0.1-1.3-1.1-2.8-3.1-4.5C165.5,156.2,165.2,155.2,164.8,154.3L164.8,154.3z"/><path class="st6" d="M166.8,164.3l-1.4,0.2c0.4,0.3,0.9,0.5,1.7,0.4c1.5-0.6,2.4-1.2,2.8-2c-0.3-0.5-0.6-0.9-0.9-1.2c-1.3-1.4-3.1-1.7-5.2-0.9c-0.8,0.3-1.5,0.4-2.2,0.5c-1.9,0.3-3.8,0.4-5.7,0.1c-0.8-0.1-1.6-0.3-2.4-0.6c-2.1-0.7-3.8-0.5-5.1,0.7c-0.4,0.4-0.8,0.8-1.1,1.3c0.4,0.8,1.3,1.4,2.8,2c0.8,0.1,1.3,0,1.7-0.4l-1.4-0.2c1.7-1.4,3.6-1.1,5.8,0.9c0.5,0.4,1.1,0.7,1.8,0.9c0.2,0,0.5,0.1,0.7,0.1c0.2,0,0.5,0,0.7-0.1c0.7-0.2,1.3-0.4,1.8-0.9C163.1,163.1,165,162.8,166.8,164.3L166.8,164.3z"/><path class="st21" d="M165.3,164.5l1.4-0.2c-1.7-1.4-3.6-1.1-5.8,0.9L165.3,164.5L165.3,164.5z"/><path class="st7" d="M147.1,162.9c0.3-0.5,0.7-1,1.1-1.3c0.2-1.4,1.2-2.8,2.8-4.3C147.7,159.4,146.4,161.4,147.1,162.9L147.1,162.9z"/><path class="st21" d="M150.2,164.3l1.4,0.2l4.3,0.7C153.8,163.1,151.9,162.8,150.2,164.3L150.2,164.3z"/><path class="st7" d="M169.8,162.9c0.7-1.5-0.6-3.4-4-5.7c1.9,1.7,2.9,3.2,3.1,4.5C169.2,162,169.5,162.4,169.8,162.9L169.8,162.9z"/><path class="st22" d="M178.2,173.3c0.6-0.2,1.3-0.4,1.9-0.6c-15.8,2.9-31,3-45.5,0.2c1,0.3,2,0.6,3.1,0.9C150.6,177.4,164.1,177.2,178.2,173.3L178.2,173.3z"/><path class="st23" d="M178.2,173.3c-5.8,7-13,10.3-21.4,9.8c-6.7-1.1-13.1-4.2-19-9.2c6.3,10.4,13.4,15.7,21.2,15.8C166.3,189.8,172.7,184.4,178.2,173.3L178.2,173.3z"/><path class="st24" d="M156.8,183.1c8.5,0.5,15.6-2.7,21.4-9.8c-14.1,3.9-27.6,4.1-40.5,0.5C143.7,178.9,150,182,156.8,183.1L156.8,183.1z"/><path class="st2" d="M200.5,113.1c3.7,2.4,6.7,4.8,8.9,7.2c-4.3,11.7-8.9,19.9-14,24.8c-3.7,2.7-8.9,4.1-15.6,4.1c-10.7,0.1-14.7-10.6-12-32c2,3.2,4.9,3.7,8.7,1.6C187.5,112.7,195.5,110.8,200.5,113.1L200.5,113.1z"/><path d="M209.4,120.3c-2.2-2.4-5.2-4.8-8.9-7.2c-5-2.3-13-0.4-23.9,5.7c-3.8,2.1-6.7,1.6-8.7-1.6l20.9-7.3C197.1,108,204,111.5,209.4,120.3L209.4,120.3z"/><path class="st2" d="M115.3,113.1c-3.7,2.4-6.7,4.8-8.9,7.2c4.3,11.7,8.9,19.9,14,24.8c3.7,2.7,8.9,4.1,15.6,4.1c10.7,0.1,14.7-10.6,12-32c-2,3.2-4.9,3.7-8.7,1.6C128.3,112.7,120.3,110.8,115.3,113.1L115.3,113.1z"/><path d="M106.3,120.3c2.2-2.4,5.2-4.8,8.9-7.2c5-2.3,13-0.4,23.9,5.7c3.8,2.1,6.7,1.6,8.7-1.6L127,110C118.7,108,111.8,111.5,106.3,120.3L106.3,120.3z"/><path class="st7" d="M104.9,141c-1.7-3.2-3.7-5.3-5.9-6.3c-3.6-0.5-4.9,2.6-4,9.3c0-0.1,0-0.3,0.1-0.4c1.3-10.3,4.9-9.2,10.9,3.2c-2.8,0.2-4.2,1.5-4.3,3.8c-0.1,2,0.9,4.7,2.8,8.1c-2.4-6.9-1.7-10.5,1.9-11l3.1,8.7c-0.6-3.3-1.3-6.2-2-8.7C106.8,145.1,105.9,142.9,104.9,141L104.9,141z"/><path class="st2" d="M95.1,143.6c2.8,0.7,5,3,6.6,7c0.1-2.3,1.5-3.6,4.3-3.8C100,134.4,96.3,133.3,95.1,143.6L95.1,143.6z"/><path class="st7" d="M210.5,141c1.7-3.2,3.7-5.3,5.9-6.3c3.6-0.5,4.9,2.6,4,9.3c0-0.1,0-0.3-0.1-0.4c-1.3-10.3-4.9-9.2-10.9,3.2c2.8,0.2,4.2,1.5,4.3,3.8c0.1,2-0.9,4.7-2.8,8.1c2.4-6.9,1.7-10.5-1.9-11l-3.1,8.7c0.6-3.3,1.3-6.2,2-8.7C208.7,145.1,209.6,142.9,210.5,141L210.5,141z"/><path class="st2" d="M220.4,143.6c-2.8,0.7-5,3-6.6,7c-0.1-2.3-1.5-3.6-4.3-3.8C215.5,134.4,219.1,133.3,220.4,143.6L220.4,143.6z"/><path d="M142.3,133.8c1,0.5,2,1,3,1.7c-0.7-1.2-2.3-2.3-4.6-3.5l4.5,1.4c-12.9-7.5-21.5-5-25.8,7.3c0.2-0.3,0.3-0.6,0.5-0.9c4.9-8.9,12.3-10.9,22.1-6.1C142.1,133.7,142.2,133.8,142.3,133.8L142.3,133.8z"/><path class="st6" d="M142,133.7c0.3,1,0.5,1.9,0.6,2.8c0.7,4.1,0.2,7.5-1.5,10.3c-0.2,0.2-0.3,0.5-0.5,0.8c-5.2,0-10.2-0.3-15.3-1c-2-1.4-3.8-3.6-5.5-6.7c-0.2,0.3-0.3,0.6-0.5,0.9c1.6,2.8,3.5,5.1,5.7,6.7c6.2,0.8,12.5,0.8,18.8,0c-1,0-2,0.1-2.9,0.1c0.2-0.2,0.4-0.5,0.5-0.7c1.9-2.8,2.4-6.3,1.5-10.4c-0.2-0.8-0.4-1.7-0.7-2.5C142.2,133.8,142.1,133.7,142,133.7L142,133.7z"/><path class="st25" d="M142.6,136.5c-0.1-0.9-0.4-1.8-0.6-2.8c-9.8-4.8-17.2-2.8-22.1,6.1c1.7,3.1,3.5,5.3,5.5,6.7c5,0.7,10.1,1,15.3,1c0.2-0.2,0.4-0.5,0.5-0.8c-4.9,0-10-0.5-15-1.5c-2.5-2.1-3.4-3.9-2.5-5.1C129.4,133.9,135.8,132.7,142.6,136.5L142.6,136.5z"/><path class="st17" d="M126.1,145.2c5.1,1.1,10.1,1.6,15,1.5c1.7-2.8,2.2-6.2,1.5-10.3c-6.9-3.8-13.2-2.6-19,3.6C122.8,141.3,123.6,143,126.1,145.2L126.1,145.2z"/><path class="st6" d="M123.2,129.8c4.2-2.4,9.3-3,15.3-2C132.8,124.9,127.7,125.6,123.2,129.8L123.2,129.8z"/><path d="M128,130.4c-1.9,1-4.1,1.5-6.6,1.3c0.5,0.6,1.1,1,1.8,1c-1.8,0.6-3.7,0.8-5.4,0.6c0.8,1,1.6,1.6,2.6,1.8c-1.8,0.7-4,0.3-6.6-1.2c1.1,2.5,2.8,4.2,5.3,5.1c-1,0.3-2.1,0.2-3.2-0.2c1.4,2,3.1,3.2,4.8,3.9C119.7,138.8,122.1,134.7,128,130.4L128,130.4z"/><path class="st26" d="M133.3,131.9c-1.8,0-3.3,0.6-4.6,1.9c-1.3,1.3-1.9,2.8-1.9,4.6c0,1.8,0.6,3.3,1.9,4.6c1.3,1.3,2.8,1.9,4.6,1.9c1.4,0,2.6-0.4,3.7-1.1c0.3-0.2,0.6-0.5,0.9-0.8c1.3-1.3,1.9-2.8,1.9-4.6s-0.6-3.3-1.9-4.6C136.6,132.5,135.1,131.9,133.3,131.9L133.3,131.9z M129,134c1.2-1.2,2.6-1.8,4.3-1.8c1.7,0,3.1,0.6,4.3,1.8c1.2,1.2,1.8,2.6,1.8,4.3s-0.6,3.1-1.8,4.3c-0.3,0.3-0.5,0.5-0.8,0.7c-1,0.7-2.1,1.1-3.4,1.1c-1.7,0-3.1-0.6-4.3-1.8c-1.2-1.2-1.8-2.6-1.8-4.3C127.2,136.6,127.8,135.2,129,134L129,134z"/><path class="st27" d="M133.3,132.2c-1.7,0-3.1,0.6-4.3,1.8c-1.2,1.2-1.8,2.6-1.8,4.3s0.6,3.1,1.8,4.3c1.2,1.2,2.6,1.8,4.3,1.8c1.3,0,2.4-0.4,3.4-1.1c0.3-0.2,0.6-0.5,0.8-0.7c1.2-1.2,1.8-2.6,1.8-4.3s-0.6-3.1-1.8-4.3C136.4,132.8,134.9,132.2,133.3,132.2L133.3,132.2z"/><path d="M135.7,135.4c-0.7-0.7-1.5-1-2.5-1s-1.8,0.4-2.5,1c-0.7,0.7-1,1.5-1,2.5c0,1,0.4,1.8,1,2.5c0.7,0.7,1.5,1.1,2.5,1.1s1.8-0.4,2.5-1.1c0.7-0.7,1.1-1.5,1.1-2.5C136.8,137,136.4,136.1,135.7,135.4L135.7,135.4z"/><path class="st28" d="M135.8,134.7c-0.5,0-1,0.2-1.3,0.5c-0.4,0.4-0.5,0.8-0.5,1.3c0,0.5,0.2,0.9,0.5,1.3c0.4,0.4,0.8,0.5,1.3,0.5c0.5,0,0.9-0.2,1.3-0.5c0.4-0.4,0.5-0.8,0.5-1.3c0-0.5-0.2-1-0.5-1.3C136.7,134.9,136.3,134.7,135.8,134.7L135.8,134.7z"/><path d="M174.6,133.8c-1,0.5-2,1-3,1.7c0.7-1.2,2.3-2.3,4.6-3.5l-4.5,1.4c12.9-7.5,21.5-5,25.8,7.3c-0.2-0.3-0.3-0.6-0.5-0.9c-4.9-8.9-12.3-10.9-22.1-6.1C174.8,133.7,174.7,133.8,174.6,133.8L174.6,133.8z"/><path class="st6" d="M174.9,133.7c-0.3,1-0.5,1.9-0.6,2.8c-0.7,4.1-0.2,7.5,1.5,10.3c0.2,0.2,0.3,0.5,0.5,0.8c5.2,0,10.2-0.3,15.3-1c2-1.4,3.8-3.6,5.5-6.7c0.2,0.3,0.3,0.6,0.5,0.9c-1.6,2.8-3.5,5.1-5.7,6.7c-6.2,0.8-12.5,0.8-18.8,0c1,0,2,0.1,2.9,0.1c-0.2-0.2-0.4-0.5-0.5-0.7c-1.9-2.8-2.4-6.3-1.5-10.4c0.2-0.8,0.4-1.7,0.7-2.5C174.7,133.8,174.8,133.7,174.9,133.7L174.9,133.7z"/><path class="st25" d="M174.3,136.5c0.1-0.9,0.4-1.8,0.6-2.8c9.8-4.8,17.2-2.8,22.1,6.1c-1.7,3.1-3.5,5.3-5.5,6.7c-5,0.7-10.1,1-15.3,1c-0.2-0.2-0.4-0.5-0.5-0.8c4.9,0,10-0.5,15-1.5c2.5-2.1,3.4-3.9,2.5-5.1C187.5,133.9,181.2,132.7,174.3,136.5L174.3,136.5z"/><path class="st17" d="M190.8,145.2c-5.1,1.1-10.1,1.6-15,1.5c-1.7-2.8-2.2-6.2-1.5-10.3c6.9-3.8,13.2-2.6,19,3.6C194.2,141.3,193.3,143,190.8,145.2L190.8,145.2z"/><path class="st6" d="M193.7,129.8c-4.2-2.4-9.3-3-15.3-2C184.1,124.9,189.2,125.6,193.7,129.8L193.7,129.8z"/><path d="M188.9,130.4c1.9,1,4.1,1.5,6.6,1.3c-0.5,0.6-1.1,1-1.8,1c1.8,0.6,3.7,0.8,5.4,0.6c-0.8,1-1.6,1.6-2.6,1.8c1.8,0.7,4,0.3,6.6-1.2c-1.1,2.5-2.8,4.2-5.3,5.1c1,0.3,2.1,0.2,3.2-0.2c-1.4,2-3.1,3.2-4.8,3.9C197.2,138.8,194.8,134.7,188.9,130.4L188.9,130.4z"/><path class="st26" d="M183.7,131.9c1.8,0,3.3,0.6,4.6,1.9c1.3,1.3,1.9,2.8,1.9,4.6c0,1.8-0.6,3.3-1.9,4.6c-1.3,1.3-2.8,1.9-4.6,1.9c-1.4,0-2.6-0.4-3.7-1.1c-0.3-0.2-0.6-0.5-0.9-0.8c-1.3-1.3-1.9-2.8-1.9-4.6s0.6-3.3,1.9-4.6C180.3,132.5,181.9,131.9,183.7,131.9L183.7,131.9z M188,134c-1.2-1.2-2.6-1.8-4.3-1.8s-3.1,0.6-4.3,1.8c-1.2,1.2-1.8,2.6-1.8,4.3s0.6,3.1,1.8,4.3c0.3,0.3,0.5,0.5,0.8,0.7c1,0.7,2.1,1.1,3.4,1.1c1.7,0,3.1-0.6,4.3-1.8c1.2-1.2,1.8-2.6,1.8-4.3S189.1,135.2,188,134L188,134z"/><path class="st27" d="M183.7,132.2c1.7,0,3.1,0.6,4.3,1.8c1.2,1.2,1.8,2.6,1.8,4.3s-0.6,3.1-1.8,4.3c-1.2,1.2-2.6,1.8-4.3,1.8c-1.3,0-2.4-0.4-3.4-1.1c-0.3-0.2-0.6-0.5-0.8-0.7c-1.2-1.2-1.8-2.6-1.8-4.3s0.6-3.1,1.8-4.3C180.5,132.8,182,132.2,183.7,132.2L183.7,132.2z"/><path d="M181.2,135.4c0.7-0.7,1.5-1,2.5-1s1.8,0.4,2.5,1c0.7,0.7,1,1.5,1,2.5c0,1-0.4,1.8-1,2.5c-0.7,0.7-1.5,1.1-2.5,1.1s-1.8-0.4-2.5-1.1c-0.7-0.7-1.1-1.5-1.1-2.5C180.2,137,180.5,136.1,181.2,135.4L181.2,135.4z"/><path class="st28" d="M181.2,134.7c0.5,0,1,0.2,1.3,0.5c0.4,0.4,0.5,0.8,0.5,1.3c0,0.5-0.2,0.9-0.5,1.3c-0.4,0.4-0.8,0.5-1.3,0.5c-0.5,0-0.9-0.2-1.3-0.5c-0.4-0.4-0.5-0.8-0.5-1.3c0-0.5,0.2-1,0.5-1.3C180.2,134.9,180.6,134.7,181.2,134.7L181.2,134.7z"/><path class="st23" d="M180.5,173.1C180.5,173.1,180.5,173.1,180.5,173.1c-0.7-1-1.9-1.6-3.9-1.7c1.5,0.5,2.6,1.2,3.3,1.9c0.4,0.5,0.8,1,1,1.5C181,174.1,180.8,173.6,180.5,173.1L180.5,173.1z"/><path class="st23" d="M134.4,173.6C134.4,173.7,134.4,173.7,134.4,173.6c-0.3,0.6-0.3,1.2-0.3,1.9c0.1-0.6,0.4-1.1,0.8-1.6c0.6-0.8,1.6-1.7,3-2.4C136.1,171.8,134.9,172.6,134.4,173.6L134.4,173.6z"/><path d="M138,128c-3.2-0.8-6.4-1.4-9.8-1.8c-8.7-0.9-15.9-0.2-21.7,2.3v3.6l1.1,1c0.8,1,1.4,2.3,1.7,4.1c0.2,1.4,0.5,3.9,1,7.5c0.5,3.3,1.1,5.8,1.9,7.5c1.2,2.7,2.5,4.6,4,5.7c2.1,1.7,5.6,2.9,10.3,3.8c5,0.8,9.2,0.7,12.5-0.3c2.8-0.9,5.4-2.7,7.7-5.3c1.6-1.9,3.4-4.6,5.3-8c1.9-3.3,2.9-5,3.1-5.2c0.6-0.6,1.1-1,1.6-1.3c0.5-0.2,1.1-0.4,1.8-0.4c0.7,0,1.3,0.1,1.8,0.4c0.5,0.3,1,0.7,1.6,1.3c0.2,0.2,1.2,1.9,3.1,5.2c1.9,3.4,3.8,6.1,5.4,8c2.3,2.6,4.9,4.4,7.7,5.3c3.3,1,7.4,1.1,12.4,0.3c4.8-0.9,8.3-2.1,10.3-3.8c1.5-1.1,2.8-3,4-5.7c0.8-1.7,1.4-4.2,1.8-7.5c0.4-3.6,0.7-6.1,1-7.5c0.3-1.8,0.8-3.1,1.5-4.1l1.1-1v-3.6c-5.6-2.4-12.8-3.2-21.5-2.3c-3.4,0.4-6.6,0.9-9.9,1.8c-2.8,0.7-5.1,1.4-6.8,2.3c-0.6,0.2-3,1.6-7.4,4c-2.8,1.6-4.9,2.3-6.2,2.3c-1.4,0-3.4-0.8-6.2-2.3c-4.4-2.4-6.8-3.7-7.4-4C143,129.4,140.7,128.7,138,128L138,128z M185.5,129.5c3.4-0.4,6.7-0.6,9.8-0.5c3.8,0.2,6.2,0.7,7.2,1.5c1,0.9,1.7,3.1,1.9,6.5c0.2,2.9,0.1,5.6-0.3,8.2c-0.4,3.1-0.9,5.3-1.5,6.6c-1,2.4-2.5,4.2-4.6,5.3c-2.6,1.3-5.3,2.2-8.3,2.7c-3.4,0.6-6.6,0.6-9.9,0.1c-2.7-0.5-5.2-2-7.4-4.5c-1.2-1.3-2.5-3.4-4-6.1c-1.4-2.5-2.2-4.4-2.5-5.6c-0.7-2.8-0.2-5.2,1.4-7.1c1.8-2,4.7-3.7,8.6-5C179,130.6,182.2,129.9,185.5,129.5L185.5,129.5z M140.9,131.6c4,1.3,6.8,3,8.6,5c1.7,1.9,2.2,4.3,1.4,7.1c-0.3,1.3-1.1,3.1-2.5,5.6c-1.5,2.7-2.8,4.7-4,6.1c-2.2,2.5-4.7,4-7.4,4.5c-3.3,0.6-6.6,0.5-9.9-0.1c-3-0.5-5.8-1.4-8.3-2.7c-2.1-1.1-3.6-2.8-4.6-5.3c-0.6-1.4-1.1-3.6-1.5-6.6c-0.4-2.6-0.5-5.3-0.3-8.2c0.2-3.4,0.9-5.6,1.9-6.5c1-0.9,3.4-1.4,7.2-1.5c3.1-0.1,6.4,0.1,9.8,0.5C134.7,129.9,137.8,130.6,140.9,131.6L140.9,131.6z"/><path class="st29" d="M195.3,129c-3.1-0.1-6.4,0.1-9.8,0.5c-3.3,0.4-6.5,1.1-9.5,2.1c-4,1.3-6.8,3-8.6,5c-1.7,1.9-2.1,4.3-1.4,7.1c0.3,1.3,1.1,3.1,2.5,5.6c1.5,2.7,2.8,4.8,4,6.1c2.2,2.5,4.7,4,7.4,4.5c3.3,0.6,6.5,0.5,9.9-0.1c3-0.5,5.8-1.4,8.3-2.7c2.1-1.1,3.6-2.8,4.6-5.3c0.6-1.4,1.1-3.6,1.5-6.6c0.4-2.6,0.5-5.3,0.3-8.2c-0.2-3.4-0.9-5.6-1.9-6.5C201.5,129.7,199.1,129.2,195.3,129L195.3,129z"/><path class="st29" d="M149.5,136.7c-1.8-2-4.6-3.7-8.6-5c-3.1-1.1-6.2-1.8-9.5-2.1c-3.4-0.4-6.7-0.6-9.8-0.5c-3.8,0.2-6.2,0.7-7.2,1.5c-1,0.9-1.7,3.1-1.9,6.5c-0.2,2.9-0.1,5.6,0.3,8.2c0.4,3.1,0.9,5.3,1.5,6.6c1,2.4,2.5,4.2,4.6,5.3c2.5,1.3,5.3,2.2,8.3,2.7c3.4,0.6,6.7,0.6,9.9,0.1c2.7-0.5,5.1-2,7.4-4.5c1.2-1.4,2.5-3.4,4-6.1c1.4-2.5,2.2-4.4,2.5-5.6C151.7,140.9,151.2,138.6,149.5,136.7L149.5,136.7z"/><path class="st30" d="M215.2,82.6c-4.2-7.1-8.7-13.9-13.8-20.6c-19.6-20.9-33.5-28.1-41.7-21.6C175,42.8,191.4,59,208.6,89c1.9,3.3,3.8,6.8,5.8,10.4c0.2,0.4,0.5,0.8,0.7,1.2c12.2,21.2,19.5,47.4,21.9,78.5c-0.9,2.8-1.9,5.5-3.1,8.1c-2.9-29.9-11-58.1-24.3-84.6c12,32.1,19,62.5,21,91.1c-3.1,5.3-6.7,10.2-11.1,14.6c1.4-29.2-1.1-57.6-7.4-85.2c4.3,29.5,5.6,58.9,4.1,88.4c-2.5,2.2-5.2,4.4-8.1,6.3c-0.6,2.2-1.3,4.5-2.1,6.7c13.4-9.6,23.9-21.2,31.5-35c2.6-4.7,4.8-9.6,6.7-14.8C241.4,141.1,231.7,110.4,215.2,82.6L215.2,82.6z"/><path class="st31" d="M215.1,100.6c-0.2-0.4-0.5-0.8-0.7-1.2c-1.9-3.6-3.9-7.1-5.8-10.4c-17.3-30-33.6-46.2-48.9-48.7c-0.5,0.4-1,0.9-1.5,1.4c-1.3,1.5-2.5,3.4-3.4,5.7l0.6-6.9c-18.4-6.7-36.8,5.6-55.1,36.8c-17.4,31.6-25.8,67.2-25.4,107c0,2.3,0.1,4.6,0.2,7c1.4,2.7,2.8,5.2,4.3,7.6c-0.8-25.3,0.4-49.1,3.6-71.2c-1.7,24.9-2.1,50-1,75.4c1.1,1.7,2.2,3.3,3.4,4.8c-1.4-26.5-0.3-51.6,3.4-75.3c-2,25.4-2,51.8,0,79.5c2.4,2.8,4.8,5.3,7.3,7.5c-0.6-6.4-1.1-12.8-1.5-19.3c-1.4-24.9-1.2-50.7,0.9-77.3l-8.8,3.3c21.1-19.5,35.9-41.8,44.5-66.7l2.4,12.3c4.4,15.7,12.9,28.6,25.7,38.8c-11.7-16.4-18-29.6-18.8-39.6l4.9,7.8c14,19.8,32,34.4,54.1,43.7c-3.8-3.1-8.1-7.1-12.9-12C176.3,100,164.2,85.3,150,66.5c12.7,15.4,25.3,29.7,37.7,42.6c3.6,3.9,7.3,7.6,11,11.2c-0.1-0.4-0.2-0.8-0.3-1.2c-2.6-4.2-5.4-8.3-8.1-12.5c-9.3-13.9-18.9-27.3-29-40.1c10.6,10.6,20.6,23.7,30,39.2c2.1,3.6,4.3,7.3,6.4,11.1c-1.3-4.2-2.8-8.5-4.5-12.9c-4.9-12.4-11.5-25.6-19.9-39.5c9.8,8.4,18,20.1,24.4,35.2c3.3,7.7,6.1,16.2,8.5,25.6c9.3,31,10.3,60.7,3.1,88.9c-0.3,1.3-0.7,2.6-1,3.9c2.9-2,5.6-4.1,8.1-6.3c1.6-29.5,0.2-58.9-4.1-88.4c6.3,27.5,8.8,55.9,7.4,85.2c4.4-4.4,8-9.3,11.1-14.6c-2-28.6-9-58.9-21-91.1c13.3,26.5,21.4,54.8,24.3,84.6c1.2-2.6,2.2-5.4,3.1-8.1C234.6,148,227.3,121.9,215.1,100.6L215.1,100.6z"/><path class="st30" d="M198.3,119.2c0.1,0.4,0.2,0.8,0.3,1.2c-3.6-3.6-7.3-7.3-11-11.2c-12.4-13-25-27.2-37.7-42.6c14.2,18.8,26.3,33.4,36.4,43.9c4.8,4.9,9.1,8.9,12.9,12c2.2,0.9,4.6,1.8,6.9,2.7c-2.4-9.4-5.2-17.9-8.5-25.6c-6.4-15-14.6-26.8-24.4-35.2c8.4,13.9,15,27.1,19.9,39.5c1.7,4.4,3.2,8.7,4.5,12.9c-2.1-3.8-4.2-7.5-6.4-11.1c-9.4-15.5-19.4-28.6-30-39.2c10.1,12.9,19.7,26.2,29,40.1C193,110.8,195.7,115,198.3,119.2L198.3,119.2z"/><path class="st30" d="M155.4,40.5l-0.6,6.9c1-2.3,2.1-4.3,3.4-5.7C157.2,41.3,156.3,40.9,155.4,40.5L155.4,40.5z"/><path class="st1" d="M111.7,111.7c-3.6,3.4-7.8,6.6-12.3,9.6c-0.5,0.3-0.9,0.6-1.4,0.9l12.8-4.7C111.1,115.6,111.4,113.6,111.7,111.7L111.7,111.7z"/><path class="st30" d="M99.4,121.3c4.5-3,8.6-6.2,12.3-9.6c11.8-11.1,19-24.4,21.6-39.9l-2.4-12.3c-8.6,25-23.4,47.2-44.5,66.7l8.8-3.3c-2,26.6-2.3,52.4-0.9,77.3c0.4,6.5,0.9,12.9,1.5,19.3c2.4,2.2,4.9,4.1,7.5,5.7c-0.1-4.8-0.1-9.6-0.1-14.5v0c0.2-29.9,2.7-61,7.4-93.1l-12.8,4.7C98.4,121.9,98.9,121.6,99.4,121.3L99.4,121.3z"/><path class="st30" d="M159,110.6c4.5,3.5,9.4,6.7,14.8,9.6c-15.8-12-25.4-25.8-28.7-41.4l-4.9-7.8C141.1,81,147.4,94.2,159,110.6L159,110.6z"/><path class="st30" d="M79.3,198.9c0.9,1.4,1.7,2.8,2.6,4.1c-1-25.4-0.7-50.5,1-75.4C79.7,149.8,78.5,173.6,79.3,198.9L79.3,198.9z"/><path class="st30" d="M88.6,212.1c-2-27.6-2-54.1,0-79.5c-3.6,23.7-4.7,48.8-3.4,75.3C86.4,209.3,87.5,210.7,88.6,212.1L88.6,212.1z"/></g></svg>